<?xml version="1.0" encoding="utf-8"?>
<!-- Generator: Adobe Illustrator 27.0.0, SVG Export Plug-In . SVG Version: 6.00 Build 0)  -->
<svg version="1.1" id="Ebene_1" xmlns="http://www.w3.org/2000/svg" xmlns:xlink="http://www.w3.org/1999/xlink" x="0px" y="0px"
	 viewBox="0 0 35 35" style="enable-background:new 0 0 35 35;" xml:space="preserve">
<style type="text/css">
	.st0{fill:#9D9D9C;}
</style>
<path class="st0" d="M19.3,16.2v1.3c0,1.5,0,2.5,0.2,3.5c0.2,1,0.6,2.1,1.1,2.7c0.5,0.6,0.8,1,1.5,1.2c0.7,0.3,1.4,0.4,2.2,0.4
	c0.6,0,1.1,0,1.5-0.1c0.4-0.1,0.9-0.1,1.3-0.2c0.4-0.1,0.8-0.2,1.2-0.4c0.4-0.1,1.1-0.5,1.6-0.6l0.7,2.5c-0.8,0.3-1.9,0.8-2.9,1
	c-1,0.2-2.2,0.4-3.5,0.4c-1.7,0-3.1-0.2-4.3-0.7c-1.2-0.5-2.1-1.3-2.8-2.3c-0.7-0.9-1.3-2.1-1.6-3.4c-0.3-1.3-0.5-2.7-0.5-4.2
	c0-1.5,0.2-2.8,0.5-4.1c0.4-1.6,0.9-2.6,1.6-3.5c0.7-0.9,1.6-1.6,2.8-2.2c0.9-0.4,2-0.7,3.2-0.8c0.4,0,0.9-0.1,1.3-0.1
	c1.2,0,2.4,0.2,3.3,0.4s2,0.6,2.8,0.9l-0.6,2.6c-0.5-0.1-1.3-0.3-1.8-0.4c-0.4-0.1-0.8-0.2-1.2-0.2c-0.4-0.1-0.9-0.1-1.3-0.2
	s-0.9-0.1-1.4-0.1c-0.7,0-1.3,0-1.9,0.2c-0.6,0.2-1.4,0.7-1.8,1.2c-0.5,0.5-0.7,1.3-1,2.2C19.4,14.2,19.3,14.9,19.3,16.2 M18.1,7.5
	c-0.9,0.5-1.6,1.1-2.3,1.9c-0.1,0.2-0.3,0.3-0.4,0.5c-0.2,0-0.5-0.1-0.7-0.1c-0.4,0-0.9-0.1-1.4-0.1c-0.7,0-1.3,0-1.9,0.2
	c-0.6,0.2-1.4,0.7-1.8,1.2c-0.5,0.5-0.7,1.3-1,2.2c-0.2,0.7-0.2,1.4-0.2,2.7v1.3c0,1.5,0,2.5,0.2,3.5c0.2,1,0.6,2.1,1.1,2.7
	c0.5,0.6,0.8,1,1.5,1.2c0.7,0.3,1.4,0.4,2.2,0.4c0.6,0,1.1,0,1.5-0.1c0.2,0,0.4-0.1,0.5-0.1c0.1,0.1,0.2,0.3,0.3,0.4
	c0.5,0.7,1.2,1.3,1.9,1.8c-0.3,0.1-0.5,0.2-0.8,0.2c-1,0.2-2.2,0.4-3.5,0.4c-1.7,0-3.1-0.2-4.3-0.7c-1.2-0.5-2.1-1.3-2.8-2.3
	c-0.7-0.9-1.3-2.1-1.6-3.4c-0.3-1.3-0.5-2.7-0.5-4.2s0.2-2.8,0.5-4.1c0.4-1.6,0.9-2.6,1.6-3.5C7.1,8.8,8,8.1,9.1,7.6
	c0.9-0.4,2-0.7,3.2-0.8c0.4,0,0.9-0.1,1.3-0.1c1.2,0,2.4,0.2,3.3,0.4C17.3,7.2,17.7,7.3,18.1,7.5 M35.1,0H-0.1v34.9h35.3V0z"/>
</svg>
