<?xml version="1.0" encoding="utf-8"?>
<!-- Generator: Adobe Illustrator 27.0.0, SVG Export Plug-In . SVG Version: 6.00 Build 0)  -->
<svg version="1.1" id="Ebene_1" xmlns="http://www.w3.org/2000/svg" xmlns:xlink="http://www.w3.org/1999/xlink" x="0px" y="0px"
	 viewBox="0 0 529.9 135.3" style="enable-background:new 0 0 529.9 135.3;" xml:space="preserve">
<style type="text/css">
	.st0{clip-path:url(#SVGID_00000183934757682681194100000002828330417225866422_);fill:#9D9D9C;}
	.st1{fill:#9D9D9C;}
	.st2{clip-path:url(#SVGID_00000165196649106842551350000017027518423357303476_);fill:#FFFFFF;}
	
		.st3{clip-path:url(#SVGID_00000160162772745290673280000017994753159992631458_);fill:none;stroke:#FFFFFF;stroke-width:0.181;stroke-miterlimit:3.493;}
	.st4{clip-path:url(#SVGID_00000052072077069819965600000013001865085524575158_);fill:#FFFFFF;}
	.st5{clip-path:url(#SVGID_00000078731971258644785920000016769296318916666046_);fill:none;}
	.st6{clip-path:url(#SVGID_00000041976838179614880860000002429396519741478580_);}
	.st7{clip-path:url(#SVGID_00000141456043651507631140000001295505427618151095_);fill:#9D9D9C;}
	.st8{clip-path:url(#SVGID_00000126312924458266555120000000466737058353291403_);fill:#9D9D9C;}
</style>
<g>
	<g>
		<defs>
			<polyline id="SVGID_1_" points="2,7.4 2,133.3 524,133.3 522,7.4 			"/>
		</defs>
		<clipPath id="SVGID_00000143580520464879698940000012048793931547557523_">
			<use xlink:href="#SVGID_1_"  style="overflow:visible;"/>
		</clipPath>
		<path style="clip-path:url(#SVGID_00000143580520464879698940000012048793931547557523_);fill:#9D9D9C;" d="M33.4,64.2v2.1
			c0,2.3,0,4,0.4,5.6c0.4,1.6,1,3.4,1.8,4.4c0.7,1,1.4,1.6,2.4,2c1.1,0.4,2.3,0.6,3.6,0.6c0.9,0,1.7,0,2.5-0.1
			c0.7-0.1,1.4-0.2,2.1-0.4c0.7-0.2,1.3-0.4,2-0.6c0.7-0.2,1.9-0.7,2.7-1l1.1,4.1c-1.3,0.6-3.1,1.3-4.7,1.7
			c-1.6,0.4-3.6,0.7-5.7,0.7c-2.7,0-5.1-0.3-7-1.2c-1.9-0.9-3.4-2.2-4.6-3.7c-1.2-1.5-2.1-3.4-2.6-5.5c-0.5-2.1-0.8-4.4-0.8-6.8
			c0-2.4,0.2-4.6,0.8-6.6c0.6-2.6,1.4-4.2,2.6-5.7c1.2-1.5,2.6-2.6,4.5-3.5c1.4-0.6,3.2-1.1,5.2-1.3c0.7-0.1,1.4-0.1,2.1-0.1
			c1.9,0,3.8,0.3,5.3,0.6s3.3,1,4.6,1.5l-1,4.3c-0.9-0.2-2.2-0.5-2.9-0.7c-0.7-0.2-1.3-0.3-2-0.4c-0.7-0.1-1.4-0.2-2.1-0.3
			s-1.4-0.1-2.2-0.1c-1.2,0-2,0.1-3.1,0.4c-1,0.3-2.2,1.1-3,2c-0.8,0.9-1.2,2.1-1.6,3.6C33.5,61,33.5,62.1,33.4,64.2 M31.5,50.1
			c-1.5,0.8-2.6,1.9-3.6,3.1c-0.2,0.3-0.4,0.5-0.6,0.8c-0.4-0.1-0.8-0.1-1.1-0.1c-0.7-0.1-1.4-0.1-2.2-0.1c-1.2,0-2,0.1-3.1,0.4
			c-1,0.3-2.2,1.1-3,2c-0.8,0.9-1.2,2.1-1.6,3.6c-0.3,1.2-0.3,2.3-0.4,4.4v2.1c0,2.3,0,4,0.4,5.6c0.4,1.6,1,3.4,1.8,4.4
			c0.7,1,1.4,1.6,2.4,2s2.3,0.6,3.6,0.6c0.9,0,1.7,0,2.5-0.1c0.3,0,0.6-0.1,0.8-0.1c0.1,0.2,0.3,0.4,0.5,0.6
			c0.8,1.1,1.9,2.1,3.1,2.9c-0.4,0.1-0.8,0.3-1.2,0.4c-1.6,0.4-3.6,0.7-5.7,0.7c-2.7,0-5.1-0.3-7-1.2c-1.9-0.9-3.4-2.2-4.6-3.7
			c-1.2-1.5-2.1-3.4-2.6-5.5c-0.5-2.1-0.8-4.4-0.8-6.8s0.2-4.6,0.8-6.6c0.6-2.6,1.4-4.2,2.6-5.7c1.2-1.5,2.6-2.6,4.5-3.5
			c1.4-0.6,3.2-1.1,5.2-1.3c0.7-0.1,1.4-0.1,2.1-0.1c1.9,0,3.8,0.3,5.3,0.6C30.1,49.7,30.8,49.9,31.5,50.1 M59,38H2v56.4h57V38z"/>
	</g>
</g>
<rect x="70.6" y="105.3" class="st1" width="239.5" height="28"/>
<g>
	<g>
		<defs>
			<polyline id="SVGID_00000047038788140980702140000016580463286564979893_" points="2,7.4 2,133.3 524,133.3 522,7.4 			"/>
		</defs>
		<clipPath id="SVGID_00000149345979180767943790000015897878193090558648_">
			<use xlink:href="#SVGID_00000047038788140980702140000016580463286564979893_"  style="overflow:visible;"/>
		</clipPath>
		<path style="clip-path:url(#SVGID_00000149345979180767943790000015897878193090558648_);fill:#FFFFFF;" d="M294.5,127.8h8.6v-1.8
			h-6.4v-4.9h5.1v-1.7h-5.1v-4.5h5.9v-1.8h-8.2V127.8z M283.2,127.8h8.2v-1.8h-5.9v-13h-2.3V127.8z M278.6,127.9
			c0.6-0.2,1.2-0.4,1.8-0.7l-0.5-1.7c-0.3,0.1-0.6,0.2-0.9,0.3c-0.3,0.1-0.5,0.2-0.8,0.3c-0.3,0.1-0.5,0.1-0.8,0.2
			c-0.3,0-0.6,0.1-1,0.1c-0.5,0-1-0.1-1.4-0.3c-0.4-0.2-0.8-0.5-1.1-0.9c-0.3-0.4-0.5-1-0.7-1.7c-0.2-0.7-0.2-1.6-0.2-2.7V120
			c0-1,0.1-1.9,0.3-2.6c0.2-0.7,0.4-1.2,0.7-1.6c0.3-0.4,0.7-0.7,1.1-0.8c0.4-0.2,0.9-0.2,1.3-0.2c0.3,0,0.6,0,0.9,0
			c0.3,0,0.5,0.1,0.8,0.1c0.3,0.1,0.6,0.1,0.8,0.2c0.3,0.1,0.6,0.2,1,0.3l0.3-1.8c-0.5-0.2-1.1-0.4-1.6-0.6c-0.6-0.1-1.2-0.2-2-0.2
			c-1.1,0-2,0.2-2.7,0.6c-0.8,0.4-1.4,0.9-1.8,1.6s-0.8,1.5-1,2.4c-0.2,0.9-0.3,1.9-0.3,3s0.1,2.1,0.3,3.1c0.2,0.9,0.5,1.8,1,2.5
			c0.5,0.7,1.1,1.2,1.8,1.6c0.7,0.4,1.7,0.6,2.7,0.6C277.2,128.2,277.9,128.1,278.6,127.9 M260.3,120.4v-5.6h2.2
			c0.5,0,0.9,0,1.3,0.1c0.4,0.1,0.6,0.2,0.9,0.4c0.2,0.2,0.4,0.5,0.5,0.8s0.1,0.7,0.1,1.2v0.3c0,1-0.2,1.7-0.6,2.1
			c-0.4,0.4-1.1,0.6-2.1,0.6L260.3,120.4L260.3,120.4z M264.1,121.7c0.7-0.1,1.3-0.3,1.8-0.5c0.5-0.3,0.9-0.6,1.1-1
			c0.3-0.4,0.5-0.8,0.6-1.3c0.1-0.5,0.2-0.9,0.2-1.4c0-1.4-0.4-2.5-1.2-3.3c-0.8-0.8-2.1-1.2-3.8-1.2H258v14.8h2.3v-5.9h2.3l3.1,5.9
			h2.4l-2.7-5L264.1,121.7z M251.5,127.8h2.3v-14.8h-2.3V127.8z M246.7,127.9c0.6-0.2,1.2-0.4,1.8-0.7l-0.5-1.7
			c-0.3,0.1-0.6,0.2-0.9,0.3c-0.3,0.1-0.5,0.2-0.8,0.3c-0.3,0.1-0.5,0.1-0.8,0.2c-0.3,0-0.6,0.1-1,0.1c-0.5,0-1-0.1-1.4-0.3
			c-0.4-0.2-0.8-0.5-1.1-0.9c-0.3-0.4-0.5-1-0.7-1.7c-0.2-0.7-0.2-1.6-0.2-2.7V120c0-1,0.1-1.9,0.3-2.6c0.2-0.7,0.4-1.2,0.7-1.6
			s0.7-0.7,1.1-0.8c0.4-0.2,0.9-0.2,1.3-0.2c0.3,0,0.6,0,0.9,0c0.3,0,0.5,0.1,0.8,0.1c0.3,0.1,0.6,0.1,0.8,0.2
			c0.3,0.1,0.6,0.2,1,0.3l0.3-1.8c-0.5-0.2-1.1-0.4-1.6-0.6c-0.6-0.1-1.2-0.2-2-0.2c-1.1,0-2,0.2-2.7,0.6c-0.8,0.4-1.4,0.9-1.8,1.6
			s-0.8,1.5-1,2.4c-0.2,0.9-0.3,1.9-0.3,3s0.1,2.1,0.3,3.1c0.2,0.9,0.5,1.8,1,2.5c0.5,0.7,1.1,1.2,1.8,1.6c0.7,0.4,1.7,0.6,2.7,0.6
			C245.3,128.2,246,128.1,246.7,127.9"/>
	</g>
	<g>
		<defs>
			<polyline id="SVGID_00000079452569293319761810000000326967869824003495_" points="2,7.4 2,133.3 524,133.3 522,7.4 			"/>
		</defs>
		<clipPath id="SVGID_00000039839435830935489810000006989975130042621576_">
			<use xlink:href="#SVGID_00000079452569293319761810000000326967869824003495_"  style="overflow:visible;"/>
		</clipPath>
		
			<path style="clip-path:url(#SVGID_00000039839435830935489810000006989975130042621576_);fill:none;stroke:#FFFFFF;stroke-width:0.181;stroke-miterlimit:3.493;" d="
			M294.5,127.8h8.6v-1.8h-6.4v-4.9h5.1v-1.7h-5.1v-4.5h5.9v-1.8h-8.2V127.8z M283.2,127.8h8.2v-1.8h-5.9v-13h-2.3V127.8z
			 M278.6,127.9c0.6-0.2,1.2-0.4,1.8-0.7l-0.5-1.7c-0.3,0.1-0.6,0.2-0.9,0.3c-0.3,0.1-0.5,0.2-0.8,0.3c-0.3,0.1-0.5,0.1-0.8,0.2
			c-0.3,0-0.6,0.1-1,0.1c-0.5,0-1-0.1-1.4-0.3c-0.4-0.2-0.8-0.5-1.1-0.9c-0.3-0.4-0.5-1-0.7-1.7c-0.2-0.7-0.2-1.6-0.2-2.7V120
			c0-1,0.1-1.9,0.3-2.6c0.2-0.7,0.4-1.2,0.7-1.6c0.3-0.4,0.7-0.7,1.1-0.8c0.4-0.2,0.9-0.2,1.3-0.2c0.3,0,0.6,0,0.9,0
			c0.3,0,0.5,0.1,0.8,0.1c0.3,0.1,0.6,0.1,0.8,0.2c0.3,0.1,0.6,0.2,1,0.3l0.3-1.8c-0.5-0.2-1.1-0.4-1.6-0.6c-0.6-0.1-1.2-0.2-2-0.2
			c-1.1,0-2,0.2-2.7,0.6c-0.8,0.4-1.4,0.9-1.8,1.6s-0.8,1.5-1,2.4c-0.2,0.9-0.3,1.9-0.3,3s0.1,2.1,0.3,3.1c0.2,0.9,0.5,1.8,1,2.5
			c0.5,0.7,1.1,1.2,1.8,1.6c0.7,0.4,1.7,0.6,2.7,0.6C277.2,128.2,277.9,128.1,278.6,127.9z M260.3,120.4v-5.6h2.2
			c0.5,0,0.9,0,1.3,0.1c0.4,0.1,0.6,0.2,0.9,0.4c0.2,0.2,0.4,0.5,0.5,0.8s0.1,0.7,0.1,1.2v0.3c0,1-0.2,1.7-0.6,2.1
			c-0.4,0.4-1.1,0.6-2.1,0.6L260.3,120.4L260.3,120.4z M264.1,121.7c0.7-0.1,1.3-0.3,1.8-0.5c0.5-0.3,0.9-0.6,1.1-1
			c0.3-0.4,0.5-0.8,0.6-1.3c0.1-0.5,0.2-0.9,0.2-1.4c0-1.4-0.4-2.5-1.2-3.3c-0.8-0.8-2.1-1.2-3.8-1.2H258v14.8h2.3v-5.9h2.3l3.1,5.9
			h2.4l-2.7-5L264.1,121.7z M251.5,127.8h2.3v-14.8h-2.3V127.8z M246.7,127.9c0.6-0.2,1.2-0.4,1.8-0.7l-0.5-1.7
			c-0.3,0.1-0.6,0.2-0.9,0.3c-0.3,0.1-0.5,0.2-0.8,0.3c-0.3,0.1-0.5,0.1-0.8,0.2c-0.3,0-0.6,0.1-1,0.1c-0.5,0-1-0.1-1.4-0.3
			c-0.4-0.2-0.8-0.5-1.1-0.9c-0.3-0.4-0.5-1-0.7-1.7c-0.2-0.7-0.2-1.6-0.2-2.7V120c0-1,0.1-1.9,0.3-2.6c0.2-0.7,0.4-1.2,0.7-1.6
			s0.7-0.7,1.1-0.8c0.4-0.2,0.9-0.2,1.3-0.2c0.3,0,0.6,0,0.9,0c0.3,0,0.5,0.1,0.8,0.1c0.3,0.1,0.6,0.1,0.8,0.2
			c0.3,0.1,0.6,0.2,1,0.3l0.3-1.8c-0.5-0.2-1.1-0.4-1.6-0.6c-0.6-0.1-1.2-0.2-2-0.2c-1.1,0-2,0.2-2.7,0.6c-0.8,0.4-1.4,0.9-1.8,1.6
			s-0.8,1.5-1,2.4c-0.2,0.9-0.3,1.9-0.3,3s0.1,2.1,0.3,3.1c0.2,0.9,0.5,1.8,1,2.5c0.5,0.7,1.1,1.2,1.8,1.6c0.7,0.4,1.7,0.6,2.7,0.6
			C245.3,128.2,246,128.1,246.7,127.9z"/>
	</g>
	<g>
		<defs>
			<polyline id="SVGID_00000110464128401454557490000004658820002650294423_" points="2,7.4 2,133.3 524,133.3 522,7.4 			"/>
		</defs>
		<clipPath id="SVGID_00000131331125098142265880000008905193994533219971_">
			<use xlink:href="#SVGID_00000110464128401454557490000004658820002650294423_"  style="overflow:visible;"/>
		</clipPath>
		<path style="clip-path:url(#SVGID_00000131331125098142265880000008905193994533219971_);fill:#FFFFFF;" d="M228.7,115.2l-1-2
			h-1.6v14.6h2.6v-11.5c0.4-0.3,0.9-0.5,1.3-0.7c0.4-0.2,0.9-0.3,1.5-0.3c0.5,0,0.9,0,1.2,0.1c0.3,0.1,0.6,0.2,0.9,0.3l0.5-2.3
			c-0.2-0.1-0.4-0.2-0.7-0.3c-0.3-0.1-0.7-0.1-1.1-0.1c-0.4,0-0.7,0-1.1,0.1c-0.3,0.1-0.7,0.2-1,0.4L228.7,115.2z M220,125.1
			c-0.5,0.3-1,0.6-1.4,0.8c-0.5,0.2-1.1,0.3-1.7,0.3c-0.6,0-1.1-0.2-1.5-0.5c-0.4-0.3-0.6-1-0.6-1.9v-10.6h-2.6v10.3
			c0,1.6,0.4,2.8,1.1,3.5s1.7,1.1,2.9,1.1c0.6,0,1.1-0.1,1.6-0.2c0.5-0.1,0.9-0.2,1.2-0.4l1.3-1.5l0.9,1.8h1.6v-14.6H220L220,125.1
			L220,125.1z M201.1,119.5c0-0.9,0.1-1.7,0.3-2.3s0.4-1.1,0.6-1.4c0.3-0.3,0.6-0.6,1-0.7c0.4-0.1,0.8-0.2,1.3-0.2
			c0.9,0,1.6,0.3,2.1,1c0.4,0.6,0.7,1.7,0.7,3.3v0.4L201.1,119.5L201.1,119.5z M201.1,121.3h8.4v-1.6c0-2.1-0.4-3.8-1.3-5
			c-0.8-1.2-2.2-1.8-4-1.8c-1.8,0-3.2,0.6-4.2,1.9s-1.6,3.2-1.6,5.8c0,2.6,0.5,4.5,1.5,5.8c1,1.3,2.5,1.9,4.6,1.9
			c0.9,0,1.8-0.1,2.6-0.4c0.8-0.3,1.4-0.5,1.8-0.8l-0.4-1.9c-0.6,0.3-1.3,0.5-1.9,0.7c-0.6,0.2-1.3,0.3-2,0.3
			c-0.6,0-1.1-0.1-1.6-0.2c-0.4-0.2-0.8-0.4-1.1-0.8c-0.3-0.4-0.5-0.9-0.6-1.5C201.2,123,201.1,122.2,201.1,121.3 M195.6,127
			c0.8-0.8,1.2-1.9,1.2-3.1c0-0.7-0.1-1.3-0.3-1.8c-0.2-0.5-0.4-0.9-0.7-1.2c-0.3-0.3-0.7-0.6-1.2-0.9c-0.5-0.2-1-0.4-1.7-0.6
			c-0.6-0.1-1-0.3-1.4-0.4c-0.4-0.1-0.7-0.3-1-0.4c-0.2-0.2-0.4-0.4-0.5-0.6c-0.1-0.2-0.2-0.5-0.2-0.9c0-0.8,0.2-1.4,0.6-1.7
			c0.4-0.3,1.1-0.4,2-0.4c0.7,0,1.3,0.1,1.8,0.2c0.5,0.1,1,0.3,1.6,0.5l0.4-1.9c-0.4-0.2-1-0.4-1.6-0.6c-0.7-0.2-1.4-0.3-2.3-0.3
			c-1.5,0-2.6,0.4-3.5,1c-0.9,0.7-1.3,1.8-1.3,3.3c0,0.7,0.1,1.2,0.3,1.7c0.2,0.5,0.4,0.9,0.7,1.2c0.3,0.3,0.7,0.6,1.1,0.8
			c0.4,0.2,0.9,0.4,1.4,0.5c0.7,0.2,1.2,0.3,1.6,0.5c0.4,0.1,0.8,0.3,1,0.5c0.2,0.2,0.4,0.4,0.5,0.6c0.1,0.3,0.1,0.6,0.1,1
			c0,0.9-0.2,1.5-0.7,1.8s-1.2,0.5-2.1,0.5c-0.7,0-1.4-0.1-2-0.3s-1.2-0.4-1.7-0.6l-0.3,1.9c0.4,0.2,1,0.4,1.7,0.6
			c0.7,0.2,1.6,0.3,2.6,0.3C193.5,128.2,194.7,127.8,195.6,127 M184.7,127c0.8-0.8,1.2-1.9,1.2-3.1c0-0.7-0.1-1.3-0.3-1.8
			c-0.2-0.5-0.4-0.9-0.7-1.2c-0.3-0.3-0.7-0.6-1.2-0.9c-0.5-0.2-1-0.4-1.7-0.6c-0.6-0.1-1-0.3-1.4-0.4c-0.4-0.1-0.7-0.3-1-0.4
			c-0.2-0.2-0.4-0.4-0.5-0.6c-0.1-0.2-0.2-0.5-0.2-0.9c0-0.8,0.2-1.4,0.6-1.7c0.4-0.3,1.1-0.4,2-0.4c0.7,0,1.3,0.1,1.8,0.2
			c0.5,0.1,1,0.3,1.6,0.5l0.4-1.9c-0.4-0.2-1-0.4-1.6-0.6c-0.7-0.2-1.4-0.3-2.3-0.3c-1.5,0-2.6,0.4-3.5,1c-0.9,0.7-1.3,1.8-1.3,3.3
			c0,0.7,0.1,1.2,0.3,1.7c0.2,0.5,0.4,0.9,0.7,1.2c0.3,0.3,0.7,0.6,1.1,0.8c0.4,0.2,0.9,0.4,1.4,0.5c0.7,0.2,1.2,0.3,1.6,0.5
			c0.4,0.1,0.8,0.3,1,0.5c0.2,0.2,0.4,0.4,0.5,0.6c0.1,0.3,0.1,0.6,0.1,1c0,0.9-0.2,1.5-0.7,1.8s-1.2,0.5-2.1,0.5
			c-0.7,0-1.4-0.1-2-0.3s-1.2-0.4-1.7-0.6l-0.3,1.9c0.4,0.2,1,0.4,1.7,0.6c0.7,0.2,1.6,0.3,2.6,0.3
			C182.7,128.2,183.9,127.8,184.7,127 M171.4,127.8h2.6v-14.6h-2.6V127.8z M173.9,110.3c0.3-0.3,0.5-0.7,0.5-1.2s-0.2-0.9-0.5-1.2
			c-0.3-0.3-0.7-0.5-1.2-0.5s-0.8,0.2-1.2,0.5c-0.3,0.3-0.5,0.7-0.5,1.2s0.2,0.9,0.5,1.2c0.3,0.3,0.7,0.4,1.2,0.4
			C173.2,110.7,173.5,110.6,173.9,110.3 M161.4,126c-0.4-0.2-0.7-0.5-1-0.9s-0.5-1-0.6-1.7s-0.2-1.6-0.2-2.6v-0.5
			c0-1,0.1-1.9,0.2-2.6c0.1-0.7,0.3-1.2,0.6-1.6s0.6-0.7,1-0.9c0.4-0.2,0.9-0.2,1.4-0.2c0.5,0,1,0.1,1.4,0.3c0.4,0.2,0.7,0.5,1,0.9
			c0.3,0.4,0.5,1,0.6,1.7c0.1,0.7,0.2,1.6,0.2,2.6v0.4c0,1-0.1,1.9-0.2,2.6c-0.1,0.7-0.4,1.2-0.6,1.7c-0.3,0.4-0.6,0.7-1,0.9
			c-0.4,0.2-0.8,0.3-1.3,0.3S161.8,126.2,161.4,126 M167.1,126.3c1-1.3,1.6-3.2,1.6-5.8c0-2.5-0.5-4.4-1.6-5.6
			c-1.1-1.3-2.5-1.9-4.3-1.9c-1.8,0-3.2,0.7-4.3,2c-1.1,1.3-1.6,3.2-1.6,5.7c0,2.5,0.5,4.4,1.6,5.7c1.1,1.3,2.5,2,4.3,2
			C164.6,128.2,166,127.6,167.1,126.3 M146.3,115.1l-1-1.9h-1.6v14.6h2.6v-11.7c0.5-0.3,1-0.6,1.5-0.8c0.5-0.2,1-0.3,1.7-0.3
			s1.2,0.2,1.6,0.5c0.4,0.3,0.6,0.9,0.6,1.7v10.6h2.6v-10.3c0-1.6-0.3-2.8-1-3.5c-0.7-0.7-1.7-1.1-2.9-1.1c-0.6,0-1.1,0.1-1.5,0.2
			c-0.4,0.1-0.8,0.3-1.1,0.4L146.3,115.1z M132.4,115.1l-1-1.9h-1.6v14.6h2.6v-11.7c0.5-0.3,1-0.6,1.5-0.8c0.5-0.2,1-0.3,1.7-0.3
			s1.2,0.2,1.6,0.5c0.4,0.3,0.6,0.9,0.6,1.7v10.6h2.6v-10.3c0-1.6-0.3-2.8-1-3.5c-0.7-0.7-1.7-1.1-2.9-1.1c-0.6,0-1.1,0.1-1.5,0.2
			c-0.4,0.1-0.8,0.3-1.1,0.4L132.4,115.1z M120,126c-0.4-0.2-0.7-0.5-1-0.9s-0.5-1-0.6-1.7s-0.2-1.6-0.2-2.6v-0.5
			c0-1,0.1-1.9,0.2-2.6c0.1-0.7,0.3-1.2,0.6-1.6s0.6-0.7,1-0.9c0.4-0.2,0.9-0.2,1.4-0.2c0.5,0,1,0.1,1.4,0.3c0.4,0.2,0.7,0.5,1,0.9
			c0.3,0.4,0.5,1,0.6,1.7s0.2,1.6,0.2,2.6v0.4c0,1-0.1,1.9-0.2,2.6c-0.1,0.7-0.4,1.2-0.6,1.7c-0.3,0.4-0.6,0.7-1,0.9
			c-0.4,0.2-0.8,0.3-1.3,0.3S120.4,126.2,120,126 M125.6,126.3c1-1.3,1.6-3.2,1.6-5.8c0-2.5-0.5-4.4-1.6-5.6
			c-1.1-1.3-2.5-1.9-4.3-1.9c-1.8,0-3.2,0.7-4.3,2c-1.1,1.3-1.6,3.2-1.6,5.7c0,2.5,0.5,4.4,1.6,5.7c1.1,1.3,2.5,2,4.3,2
			C123.1,128.2,124.6,127.6,125.6,126.3 M112.4,127.9c0.7-0.2,1.3-0.5,1.7-0.8l-0.4-1.9c-0.6,0.3-1.2,0.5-1.7,0.7
			c-0.5,0.2-1.1,0.3-1.8,0.3c-0.5,0-1-0.1-1.4-0.2c-0.4-0.2-0.7-0.5-1-0.9c-0.3-0.4-0.5-1-0.6-1.7s-0.2-1.6-0.2-2.7v-0.4
			c0-1.1,0.1-1.9,0.2-2.6s0.3-1.2,0.6-1.6s0.6-0.6,1-0.8c0.4-0.1,0.9-0.2,1.4-0.2c0.6,0,1.1,0.1,1.7,0.2c0.5,0.1,1.1,0.3,1.7,0.5
			l0.4-2c-0.5-0.2-1.1-0.4-1.7-0.6s-1.4-0.3-2.2-0.3c-1.9,0-3.3,0.6-4.3,1.9c-1,1.2-1.5,3.2-1.5,5.7c0,2.6,0.5,4.5,1.5,5.8
			c1,1.3,2.4,1.9,4.3,1.9C110.9,128.2,111.7,128.1,112.4,127.9 M90.8,131.3h1.9l4.6-14.5h-1.8l-2,6.4l-0.6,3.2l-0.5-3.2l-2-6.4h-2
			l3.6,10.7L90.8,131.3z M81.1,119.1c0.2-0.2,0.5-0.4,0.9-0.6c0.4-0.2,0.8-0.3,1.4-0.3c0.4,0,0.7,0.1,0.9,0.2
			c0.3,0.1,0.5,0.3,0.7,0.6c0.2,0.3,0.3,0.7,0.4,1.2c0.1,0.5,0.2,1.1,0.2,1.9v0.7c0,0.7-0.1,1.4-0.1,1.9c-0.1,0.5-0.2,0.9-0.5,1.2
			c-0.2,0.3-0.5,0.5-0.7,0.7c-0.3,0.1-0.6,0.2-1,0.2c-0.4,0-0.8-0.1-1.2-0.2c-0.4-0.1-0.7-0.3-1-0.5L81.1,119.1L81.1,119.1z
			 M80.7,126.6l1.2,1.2c0.2,0.1,0.4,0.1,0.7,0.2s0.6,0.1,1,0.1c1.3,0,2.3-0.5,3-1.4s1-2.4,1-4.4c0-2-0.3-3.4-1-4.3
			c-0.7-0.9-1.6-1.4-2.8-1.4c-0.6,0-1.2,0.1-1.6,0.3c-0.4,0.2-0.8,0.5-1.1,0.8v-5h-1.9v15.2h0.9L80.7,126.6z"/>
	</g>
	<g>
		<defs>
			<polyline id="SVGID_00000017483504594870323750000001032001008225254324_" points="2,7.4 2,133.3 524,133.3 522,7.4 			"/>
		</defs>
		<clipPath id="SVGID_00000124120045044237932270000006719590113004291719_">
			<use xlink:href="#SVGID_00000017483504594870323750000001032001008225254324_"  style="overflow:visible;"/>
		</clipPath>
		<path style="clip-path:url(#SVGID_00000124120045044237932270000006719590113004291719_);fill:none;" d="M228.7,115.2l-1-2h-1.6
			v14.6h2.6v-11.5c0.4-0.3,0.9-0.5,1.3-0.7c0.4-0.2,0.9-0.3,1.5-0.3c0.5,0,0.9,0,1.2,0.1c0.3,0.1,0.6,0.2,0.9,0.3l0.5-2.3
			c-0.2-0.1-0.4-0.2-0.7-0.3c-0.3-0.1-0.7-0.1-1.1-0.1c-0.4,0-0.7,0-1.1,0.1c-0.3,0.1-0.7,0.2-1,0.4L228.7,115.2z M220,125.1
			c-0.5,0.3-1,0.6-1.4,0.8c-0.5,0.2-1.1,0.3-1.7,0.3c-0.6,0-1.1-0.2-1.5-0.5c-0.4-0.3-0.6-1-0.6-1.9v-10.6h-2.6v10.3
			c0,1.6,0.4,2.8,1.1,3.5s1.7,1.1,2.9,1.1c0.6,0,1.1-0.1,1.6-0.2c0.5-0.1,0.9-0.2,1.2-0.4l1.3-1.5l0.9,1.8h1.6v-14.6H220L220,125.1
			L220,125.1z M201.1,119.5c0-0.9,0.1-1.7,0.3-2.3s0.4-1.1,0.6-1.4c0.3-0.3,0.6-0.6,1-0.7c0.4-0.1,0.8-0.2,1.3-0.2
			c0.9,0,1.6,0.3,2.1,1c0.4,0.6,0.7,1.7,0.7,3.3v0.4L201.1,119.5L201.1,119.5z M201.1,121.3h8.4v-1.6c0-2.1-0.4-3.8-1.3-5
			c-0.8-1.2-2.2-1.8-4-1.8c-1.8,0-3.2,0.6-4.2,1.9s-1.6,3.2-1.6,5.8c0,2.6,0.5,4.5,1.5,5.8c1,1.3,2.5,1.9,4.6,1.9
			c0.9,0,1.8-0.1,2.6-0.4c0.8-0.3,1.4-0.5,1.8-0.8l-0.4-1.9c-0.6,0.3-1.3,0.5-1.9,0.7c-0.6,0.2-1.3,0.3-2,0.3
			c-0.6,0-1.1-0.1-1.6-0.2c-0.4-0.2-0.8-0.4-1.1-0.8c-0.3-0.4-0.5-0.9-0.6-1.5C201.2,123,201.1,122.2,201.1,121.3z M195.6,127
			c0.8-0.8,1.2-1.9,1.2-3.1c0-0.7-0.1-1.3-0.3-1.8c-0.2-0.5-0.4-0.9-0.7-1.2c-0.3-0.3-0.7-0.6-1.2-0.9c-0.5-0.2-1-0.4-1.7-0.6
			c-0.6-0.1-1-0.3-1.4-0.4c-0.4-0.1-0.7-0.3-1-0.4c-0.2-0.2-0.4-0.4-0.5-0.6c-0.1-0.2-0.2-0.5-0.2-0.9c0-0.8,0.2-1.4,0.6-1.7
			c0.4-0.3,1.1-0.4,2-0.4c0.7,0,1.3,0.1,1.8,0.2c0.5,0.1,1,0.3,1.6,0.5l0.4-1.9c-0.4-0.2-1-0.4-1.6-0.6c-0.7-0.2-1.4-0.3-2.3-0.3
			c-1.5,0-2.6,0.4-3.5,1c-0.9,0.7-1.3,1.8-1.3,3.3c0,0.7,0.1,1.2,0.3,1.7c0.2,0.5,0.4,0.9,0.7,1.2c0.3,0.3,0.7,0.6,1.1,0.8
			c0.4,0.2,0.9,0.4,1.4,0.5c0.7,0.2,1.2,0.3,1.6,0.5c0.4,0.1,0.8,0.3,1,0.5c0.2,0.2,0.4,0.4,0.5,0.6c0.1,0.3,0.1,0.6,0.1,1
			c0,0.9-0.2,1.5-0.7,1.8s-1.2,0.5-2.1,0.5c-0.7,0-1.4-0.1-2-0.3s-1.2-0.4-1.7-0.6l-0.3,1.9c0.4,0.2,1,0.4,1.7,0.6
			c0.7,0.2,1.6,0.3,2.6,0.3C193.5,128.2,194.7,127.8,195.6,127z M184.7,127c0.8-0.8,1.2-1.9,1.2-3.1c0-0.7-0.1-1.3-0.3-1.8
			c-0.2-0.5-0.4-0.9-0.7-1.2c-0.3-0.3-0.7-0.6-1.2-0.9c-0.5-0.2-1-0.4-1.7-0.6c-0.6-0.1-1-0.3-1.4-0.4c-0.4-0.1-0.7-0.3-1-0.4
			c-0.2-0.2-0.4-0.4-0.5-0.6c-0.1-0.2-0.2-0.5-0.2-0.9c0-0.8,0.2-1.4,0.6-1.7c0.4-0.3,1.1-0.4,2-0.4c0.7,0,1.3,0.1,1.8,0.2
			c0.5,0.1,1,0.3,1.6,0.5l0.4-1.9c-0.4-0.2-1-0.4-1.6-0.6c-0.7-0.2-1.4-0.3-2.3-0.3c-1.5,0-2.6,0.4-3.5,1c-0.9,0.7-1.3,1.8-1.3,3.3
			c0,0.7,0.1,1.2,0.3,1.7c0.2,0.5,0.4,0.9,0.7,1.2c0.3,0.3,0.7,0.6,1.1,0.8c0.4,0.2,0.9,0.4,1.4,0.5c0.7,0.2,1.2,0.3,1.6,0.5
			c0.4,0.1,0.8,0.3,1,0.5c0.2,0.2,0.4,0.4,0.5,0.6c0.1,0.3,0.1,0.6,0.1,1c0,0.9-0.2,1.5-0.7,1.8s-1.2,0.5-2.1,0.5
			c-0.7,0-1.4-0.1-2-0.3s-1.2-0.4-1.7-0.6l-0.3,1.9c0.4,0.2,1,0.4,1.7,0.6c0.7,0.2,1.6,0.3,2.6,0.3
			C182.7,128.2,183.9,127.8,184.7,127z M171.4,127.8h2.6v-14.6h-2.6V127.8z M173.9,110.3c0.3-0.3,0.5-0.7,0.5-1.2s-0.2-0.9-0.5-1.2
			c-0.3-0.3-0.7-0.5-1.2-0.5s-0.8,0.2-1.2,0.5c-0.3,0.3-0.5,0.7-0.5,1.2s0.2,0.9,0.5,1.2c0.3,0.3,0.7,0.4,1.2,0.4
			C173.2,110.7,173.5,110.6,173.9,110.3z M161.4,126c-0.4-0.2-0.7-0.5-1-0.9s-0.5-1-0.6-1.7s-0.2-1.6-0.2-2.6v-0.5
			c0-1,0.1-1.9,0.2-2.6c0.1-0.7,0.3-1.2,0.6-1.6s0.6-0.7,1-0.9c0.4-0.2,0.9-0.2,1.4-0.2c0.5,0,1,0.1,1.4,0.3c0.4,0.2,0.7,0.5,1,0.9
			c0.3,0.4,0.5,1,0.6,1.7c0.1,0.7,0.2,1.6,0.2,2.6v0.4c0,1-0.1,1.9-0.2,2.6c-0.1,0.7-0.4,1.2-0.6,1.7c-0.3,0.4-0.6,0.7-1,0.9
			c-0.4,0.2-0.8,0.3-1.3,0.3S161.8,126.2,161.4,126z M167.1,126.3c1-1.3,1.6-3.2,1.6-5.8c0-2.5-0.5-4.4-1.6-5.6
			c-1.1-1.3-2.5-1.9-4.3-1.9c-1.8,0-3.2,0.7-4.3,2c-1.1,1.3-1.6,3.2-1.6,5.7c0,2.5,0.5,4.4,1.6,5.7c1.1,1.3,2.5,2,4.3,2
			C164.6,128.2,166,127.6,167.1,126.3z M146.3,115.1l-1-1.9h-1.6v14.6h2.6v-11.7c0.5-0.3,1-0.6,1.5-0.8c0.5-0.2,1-0.3,1.7-0.3
			s1.2,0.2,1.6,0.5c0.4,0.3,0.6,0.9,0.6,1.7v10.6h2.6v-10.3c0-1.6-0.3-2.8-1-3.5c-0.7-0.7-1.7-1.1-2.9-1.1c-0.6,0-1.1,0.1-1.5,0.2
			c-0.4,0.1-0.8,0.3-1.1,0.4L146.3,115.1z M132.4,115.1l-1-1.9h-1.6v14.6h2.6v-11.7c0.5-0.3,1-0.6,1.5-0.8c0.5-0.2,1-0.3,1.7-0.3
			s1.2,0.2,1.6,0.5c0.4,0.3,0.6,0.9,0.6,1.7v10.6h2.6v-10.3c0-1.6-0.3-2.8-1-3.5c-0.7-0.7-1.7-1.1-2.9-1.1c-0.6,0-1.1,0.1-1.5,0.2
			c-0.4,0.1-0.8,0.3-1.1,0.4L132.4,115.1z M120,126c-0.4-0.2-0.7-0.5-1-0.9s-0.5-1-0.6-1.7s-0.2-1.6-0.2-2.6v-0.5
			c0-1,0.1-1.9,0.2-2.6c0.1-0.7,0.3-1.2,0.6-1.6s0.6-0.7,1-0.9c0.4-0.2,0.9-0.2,1.4-0.2c0.5,0,1,0.1,1.4,0.3c0.4,0.2,0.7,0.5,1,0.9
			c0.3,0.4,0.5,1,0.6,1.7s0.2,1.6,0.2,2.6v0.4c0,1-0.1,1.9-0.2,2.6c-0.1,0.7-0.4,1.2-0.6,1.7c-0.3,0.4-0.6,0.7-1,0.9
			c-0.4,0.2-0.8,0.3-1.3,0.3S120.4,126.2,120,126z M125.6,126.3c1-1.3,1.6-3.2,1.6-5.8c0-2.5-0.5-4.4-1.6-5.6
			c-1.1-1.3-2.5-1.9-4.3-1.9c-1.8,0-3.2,0.7-4.3,2c-1.1,1.3-1.6,3.2-1.6,5.7c0,2.5,0.5,4.4,1.6,5.7c1.1,1.3,2.5,2,4.3,2
			C123.1,128.2,124.6,127.6,125.6,126.3z M112.4,127.9c0.7-0.2,1.3-0.5,1.7-0.8l-0.4-1.9c-0.6,0.3-1.2,0.5-1.7,0.7
			c-0.5,0.2-1.1,0.3-1.8,0.3c-0.5,0-1-0.1-1.4-0.2c-0.4-0.2-0.7-0.5-1-0.9c-0.3-0.4-0.5-1-0.6-1.7s-0.2-1.6-0.2-2.7v-0.4
			c0-1.1,0.1-1.9,0.2-2.6s0.3-1.2,0.6-1.6s0.6-0.6,1-0.8c0.4-0.1,0.9-0.2,1.4-0.2c0.6,0,1.1,0.1,1.7,0.2c0.5,0.1,1.1,0.3,1.7,0.5
			l0.4-2c-0.5-0.2-1.1-0.4-1.7-0.6s-1.4-0.3-2.2-0.3c-1.9,0-3.3,0.6-4.3,1.9c-1,1.2-1.5,3.2-1.5,5.7c0,2.6,0.5,4.5,1.5,5.8
			c1,1.3,2.4,1.9,4.3,1.9C110.9,128.2,111.7,128.1,112.4,127.9z M90.8,131.3h1.9l4.6-14.5h-1.8l-2,6.4l-0.6,3.2l-0.5-3.2l-2-6.4h-2
			l3.6,10.7L90.8,131.3z M81.1,119.1c0.2-0.2,0.5-0.4,0.9-0.6c0.4-0.2,0.8-0.3,1.4-0.3c0.4,0,0.7,0.1,0.9,0.2
			c0.3,0.1,0.5,0.3,0.7,0.6c0.2,0.3,0.3,0.7,0.4,1.2c0.1,0.5,0.2,1.1,0.2,1.9v0.7c0,0.7-0.1,1.4-0.1,1.9c-0.1,0.5-0.2,0.9-0.5,1.2
			c-0.2,0.3-0.5,0.5-0.7,0.7c-0.3,0.1-0.6,0.2-1,0.2c-0.4,0-0.8-0.1-1.2-0.2c-0.4-0.1-0.7-0.3-1-0.5L81.1,119.1L81.1,119.1z
			 M80.7,126.6l1.2,1.2c0.2,0.1,0.4,0.1,0.7,0.2s0.6,0.1,1,0.1c1.3,0,2.3-0.5,3-1.4s1-2.4,1-4.4c0-2-0.3-3.4-1-4.3
			c-0.7-0.9-1.6-1.4-2.8-1.4c-0.6,0-1.2,0.1-1.6,0.3c-0.4,0.2-0.8,0.5-1.1,0.8v-5h-1.9v15.2h0.9L80.7,126.6z"/>
	</g>
	<g>
		<defs>
			<polyline id="SVGID_00000093146180764350266840000015944847936259398285_" points="2,7.4 2,133.3 524,133.3 522,7.4 			"/>
		</defs>
		<clipPath id="SVGID_00000026880081304814484820000015458827284880776857_">
			<use xlink:href="#SVGID_00000093146180764350266840000015944847936259398285_"  style="overflow:visible;"/>
		</clipPath>
		<g style="clip-path:url(#SVGID_00000026880081304814484820000015458827284880776857_);">
			<g>
				<defs>
					<rect id="SVGID_00000109728498610572777170000002600863615564807867_" x="70.6" y="37.5" width="451.2" height="58.7"/>
				</defs>
				<clipPath id="SVGID_00000164491304802502458970000005173121019831283892_">
					<use xlink:href="#SVGID_00000109728498610572777170000002600863615564807867_"  style="overflow:visible;"/>
				</clipPath>
				<path style="clip-path:url(#SVGID_00000164491304802502458970000005173121019831283892_);fill:#9D9D9C;" d="M91.3,68.1H75.6
					V42.8h15.7c8.4,0,12.3,3.9,12.3,12.3C103.6,62.7,100.5,68.1,91.3,68.1 M109.5,94.8L97.9,71.6c7.5-2,10.9-8,10.9-16.5
					c0-11.7-5.9-16.7-17.5-16.7H70.6v56.4h5V72.5h17.2l11.1,22.2L109.5,94.8L109.5,94.8z M121.5,64.7c0.1-15,6-22.4,17.9-22.4
					c11.7,0,16.5,6.5,16.5,22.4H121.5z M121.5,69h39.3V65c0-18.4-6.8-27-21.4-27c-15.1,0-22.8,9.8-22.8,29.1c0,15,2.6,29,21.2,29.1
					h0c8,0,20.4-1,20.5-1l0.4,0l-0.3-4.3l-0.4,0c-0.1,0-12.5,1-20.1,1C126.4,91.8,121.6,85.2,121.5,69 M173.6,51.9
					c0-7,4.6-10,13.1-10c4.7,0,15.9,1.4,15.9,1.4L203,39c0,0-10.1-1.5-16.6-1.5c-10.9,0-17.8,4.1-17.8,14.8
					c0,11.2,6.1,13.6,17.5,15.8c9.4,1.7,13.1,3.5,13.1,10.5c0,8.7-4.3,12.3-12.7,12.3c-5.8,0-16.9-1.4-16.9-1.4l-0.6,4.3
					c0,0,11.2,1.5,17.6,1.5c11.1,0,17.7-4.6,17.7-17.1c0-10-5.3-12.7-16.3-14.8C177.9,61.5,173.6,60.3,173.6,51.9 M216.1,94.8h5
					V38.4h-5V94.8z M268.2,65.8c0,12.2-3,24.5-14.8,24.5h-15.5V42.9h15.5C265.2,42.9,268.2,53.7,268.2,65.8 M273.4,65.8
					c0-15.3-4.5-27.4-20-27.4h-20.5v56.4h20.5C269,94.8,273.4,81.2,273.4,65.8 M286.3,64.7c0.1-15,5.9-22.4,17.9-22.4
					c11.7,0,16.5,6.5,16.5,22.4H286.3z M286.3,69h39.3V65c0-18.4-6.8-27-21.4-27c-15.1,0-22.8,9.8-22.8,29.1c0,15,2.6,29,21.2,29.1
					h0c8,0,20.4-1,20.5-1l0.4,0l-0.3-4.3l-0.4,0c-0.1,0-12.5,1-20.1,1C291.1,91.8,286.4,85.2,286.3,69 M374.6,95.2h4.7V66
					c0-21-2.7-28-18.6-28c-8.2,0-16.7,4-19,5.2V39h-4.7v56.2h4.7V47.7c1.4-0.8,10.1-5.4,19-5.4c12.1,0,13.9,5.4,13.9,23.9
					L374.6,95.2L374.6,95.2z M396,65.9c0-17.6,4.6-23.5,18.2-23.5c4.1,0,12.9,1.1,13,1.1l0.4,0.1l0.3-4.3l-0.4,0
					c-0.1,0-9.2-1.1-13.3-1.1c-17.1,0-23.1,7.3-23.1,27.9c0,23.5,5.2,30.3,23.1,30.3c4.2,0,13.5-1,13.6-1l0.4,0l-0.3-4.3l-0.4,0
					c-0.1,0-9.1,1-13.2,1C401.4,91.8,396,88.2,396,65.9 M437.1,64.7c0.1-15,5.9-22.4,17.9-22.4c11.7,0,16.5,6.5,16.5,22.4H437.1z
					 M437.1,69h39.3V65c0-18.4-6.8-27-21.4-27c-15.1,0-22.8,9.8-22.8,29.1c0,15,2.6,29,21.2,29.1h0c8,0,20.4-1,20.5-1l0.4,0
					l-0.3-4.3l-0.4,0c-0.1,0-12.5,1-20.1,1C442,91.8,437.2,85.2,437.1,69 M520.2,43.3l0.4-4.3c0,0-10.1-1.5-16.6-1.5
					c-10.9,0-17.8,4.1-17.8,14.8c0,11.2,6.1,13.6,17.5,15.8c9.4,1.7,13.1,3.5,13.1,10.5c0,8.7-4.3,12.3-12.7,12.3
					c-5.8,0-16.9-1.4-16.9-1.4l-0.6,4.3c0,0,11.2,1.5,17.6,1.5c11.1,0,17.7-4.6,17.7-17.1c0-10-5.3-12.7-16.3-14.8
					c-10-1.9-14.3-3.2-14.3-11.5c0-7,4.6-10,13.1-10C509,42,520.2,43.3,520.2,43.3"/>
			</g>
		</g>
	</g>
</g>
<g>
	<g>
		<defs>
			<rect id="SVGID_00000168838832646471415440000007493205652358058632_" x="70.6" y="7.5" width="147.7" height="21.1"/>
		</defs>
		<clipPath id="SVGID_00000034780749074220981010000007898998491538610318_">
			<use xlink:href="#SVGID_00000168838832646471415440000007493205652358058632_"  style="overflow:visible;"/>
		</clipPath>
		<path style="clip-path:url(#SVGID_00000034780749074220981010000007898998491538610318_);fill:#9D9D9C;" d="M82.4,14.1
			c0,3.3-1.3,5.2-4.4,5.2h-5.6v-10H78C81.1,9.3,82.4,10.9,82.4,14.1 M84.3,14.1c0-4.3-1.9-6.4-6.3-6.4h-7.4V28h1.8v-7H78
			C82.3,20.9,84.3,18.5,84.3,14.1 M96.1,18.4h-5.6V9.3h5.6c3,0,4.4,1.4,4.4,4.4C100.6,16.5,99.4,18.4,96.1,18.4 M102.7,28l-4.2-8.3
			c2.7-0.7,3.9-2.9,3.9-5.9c0-4.2-2.1-6-6.3-6h-7.4V28h1.8v-8h6.2l4,8L102.7,28L102.7,28z M108.8,17.1c0.1-5.2,2.1-7.8,6.3-7.8
			c4.1,0,5.8,2.3,5.8,7.8H108.8z M108.8,18.8h14.1v-1.6c0-6.7-2.5-9.8-7.8-9.8c-5.5,0-8.3,3.5-8.3,10.5c0,5.4,0.9,10.5,7.7,10.5h0
			c2.9,0,7.3-0.4,7.4-0.4l0.2,0l-0.1-1.8l-0.3,0c0,0-4.5,0.4-7.2,0.4C110.6,26.8,108.9,24.5,108.8,18.8 M154.1,28.2h1.9V17.6
			c0-7.5-1-10.1-6.8-10.1c-3.4,0-6.4,1.6-7.2,2.1c-1-1.5-2.6-2.1-5.4-2.1c-2.8,0-5.3,1.2-6.3,1.8V7.8h-1.9v20.4h1.9V11.1
			c0.6-0.3,3.2-1.9,6.3-1.9c4.1,0,4.9,1.4,4.9,8.4v10.5h1.9V17.6c0-3.2-0.2-5.2-0.7-6.6c0.7-0.4,3.3-1.8,6.5-1.8
			c4.1,0,4.9,1.4,4.9,8.4L154.1,28.2L154.1,28.2z M162.1,28h1.8V7.7h-1.8V28z M182.3,28.2h1.9V7.8h-1.9v17.1
			c-0.6,0.3-3.2,1.9-6.3,1.9c-4.1,0-4.9-1.4-4.9-8.4V7.8h-1.9v10.6c0,7.5,1,10.1,6.8,10.1c2.8,0,5.3-1.2,6.3-1.8L182.3,28.2
			L182.3,28.2z M218.3,28.2V17.6c0-7.5-1-10.1-6.8-10.1c-3.4,0-6.4,1.6-7.2,2.1c-1-1.5-2.6-2.1-5.4-2.1c-2.8,0-5.3,1.2-6.3,1.8V7.8
			h-1.9v20.4h1.9V11.1c0.6-0.3,3.2-1.9,6.3-1.9c3.8,0,4.9,1.1,4.9,8.4v10.5h1.9V17.6c0-3.2-0.2-5.2-0.7-6.6c0.7-0.4,3.3-1.8,6.5-1.8
			c3.8,0,4.9,1.1,4.9,8.4v10.5H218.3z"/>
	</g>
</g>
</svg>
