<?xml version="1.0" encoding="utf-8"?>
<!-- Generator: Adobe Illustrator 16.0.0, SVG Export Plug-In . SVG Version: 6.00 Build 0)  -->
<!DOCTYPE svg PUBLIC "-//W3C//DTD SVG 1.1//EN" "http://www.w3.org/Graphics/SVG/1.1/DTD/svg11.dtd">
<svg version="1.1" id="Ebene_1" xmlns="http://www.w3.org/2000/svg" xmlns:xlink="http://www.w3.org/1999/xlink" x="0px" y="0px"
	 width="841.89px" height="595.28px" viewBox="0 0 841.89 595.28" enable-background="new 0 0 841.89 595.28" xml:space="preserve">
<g>
	<defs>
		<polyline id="SVGID_1_" points="160,235.38 160,361.28 681.959,361.28 679.959,235.38 		"/>
	</defs>
	<clipPath id="SVGID_2_">
		<use xlink:href="#SVGID_1_"  overflow="visible"/>
	</clipPath>
	<path clip-path="url(#SVGID_2_)" fill="#9D9D9C" d="M191.404,292.205v2.107c0,2.349-0.002,4.018,0.397,5.605
		c0.4,1.587,1.048,3.414,1.789,4.373c0.742,0.959,1.357,1.606,2.423,2.02c1.064,0.414,2.262,0.62,3.594,0.62
		c0.913,0,1.731-0.05,2.454-0.149c0.722-0.099,1.416-0.231,2.082-0.397c0.665-0.164,1.331-0.362,1.997-0.595
		c0.665-0.23,1.858-0.735,2.657-1.001l1.093,4.074c-1.332,0.562-3.055,1.293-4.671,1.69c-1.617,0.396-3.611,0.695-5.665,0.695
		c-2.702,0-5.075-0.333-6.957-1.192c-1.883-0.86-3.412-2.155-4.572-3.678c-1.161-1.521-2.071-3.398-2.584-5.467
		c-0.514-2.066-0.795-4.426-0.795-6.808c0-2.381,0.243-4.575,0.795-6.609c0.596-2.584,1.404-4.177,2.584-5.665
		c1.178-1.489,2.57-2.635,4.472-3.479c1.407-0.624,3.247-1.086,5.187-1.284c0.682-0.07,1.376-0.107,2.068-0.107
		c1.94,0,3.842,0.282,5.268,0.597s3.278,0.994,4.572,1.49l-0.994,4.274c-0.875-0.231-2.16-0.514-2.882-0.696
		c-0.723-0.181-1.303-0.28-1.988-0.397c-0.685-0.115-1.402-0.231-2.087-0.298s-1.388-0.1-2.187-0.1
		c-1.179,0-2.035,0.067-3.081,0.397c-1.046,0.331-2.221,1.111-2.981,1.987c-0.762,0.877-1.154,2.091-1.591,3.578
		C191.543,288.985,191.483,290.078,191.404,292.205 M189.522,278.12c-1.472,0.824-2.635,1.859-3.646,3.135
		c-0.211,0.268-0.411,0.538-0.601,0.817c-0.379-0.057-0.757-0.108-1.126-0.144c-0.685-0.066-1.388-0.1-2.187-0.1
		c-1.179,0-2.035,0.067-3.081,0.397c-1.047,0.331-2.221,1.111-2.982,1.987c-0.761,0.877-1.153,2.091-1.59,3.578
		c-0.258,1.193-0.318,2.286-0.397,4.413v2.107c0,2.349-0.002,4.018,0.397,5.605c0.4,1.587,1.047,3.414,1.789,4.373
		c0.742,0.959,1.357,1.606,2.422,2.02c1.065,0.414,2.263,0.62,3.595,0.62c0.913,0,1.73-0.05,2.453-0.149
		c0.289-0.039,0.57-0.088,0.849-0.138c0.149,0.218,0.302,0.432,0.459,0.638c0.846,1.11,1.882,2.102,3.093,2.913
		c-0.416,0.135-0.832,0.257-1.242,0.358c-1.618,0.396-3.612,0.695-5.666,0.695c-2.701,0-5.074-0.333-6.957-1.192
		c-1.883-0.86-3.412-2.155-4.572-3.678c-1.16-1.521-2.07-3.398-2.584-5.467c-0.513-2.066-0.795-4.426-0.795-6.808
		s0.243-4.575,0.795-6.609c0.597-2.584,1.405-4.177,2.584-5.665c1.179-1.489,2.57-2.635,4.473-3.479
		c1.407-0.624,3.246-1.086,5.187-1.284c0.682-0.07,1.376-0.107,2.068-0.107c1.94,0,3.841,0.282,5.268,0.597
		C188.14,277.69,188.83,277.895,189.522,278.12 M217.043,266.026H160v56.409h57.043V266.026z"/>
</g>
<rect x="228.598" y="333.258" fill="#9D9D9C" width="239.46" height="28.022"/>
<g>
	<defs>
		<polyline id="SVGID_3_" points="160,235.38 160,361.28 681.959,361.28 679.959,235.38 		"/>
	</defs>
	<clipPath id="SVGID_4_">
		<use xlink:href="#SVGID_3_"  overflow="visible"/>
	</clipPath>
	<path clip-path="url(#SVGID_4_)" fill="#FFFFFF" d="M452.486,355.847h8.65v-1.794h-6.357v-4.927h5.109v-1.703h-5.109v-4.519h5.949
		v-1.839h-8.242V355.847z M441.248,355.847h8.219v-1.771h-5.926v-13.01h-2.293V355.847z M436.561,355.892
		c0.643-0.182,1.229-0.401,1.758-0.658l-0.498-1.726c-0.318,0.121-0.61,0.234-0.875,0.341c-0.264,0.105-0.529,0.196-0.795,0.271
		c-0.265,0.076-0.541,0.137-0.828,0.183c-0.288,0.045-0.613,0.067-0.977,0.067c-0.529,0-1.007-0.095-1.431-0.283
		c-0.424-0.189-0.783-0.503-1.078-0.942c-0.295-0.438-0.522-1.021-0.681-1.749c-0.159-0.726-0.239-1.626-0.239-2.701v-0.727
		c0-1.044,0.087-1.907,0.263-2.588c0.172-0.682,0.411-1.223,0.715-1.624c0.301-0.401,0.662-0.678,1.078-0.828
		c0.416-0.152,0.858-0.228,1.327-0.228c0.318,0,0.613,0.016,0.886,0.045c0.272,0.03,0.545,0.072,0.817,0.125
		c0.272,0.054,0.554,0.121,0.84,0.204c0.288,0.084,0.606,0.179,0.954,0.284l0.271-1.794c-0.514-0.227-1.055-0.412-1.623-0.556
		c-0.567-0.145-1.236-0.216-2.008-0.216c-1.061,0-1.969,0.192-2.726,0.578c-0.757,0.387-1.37,0.921-1.839,1.602
		s-0.814,1.487-1.033,2.418c-0.22,0.931-0.329,1.941-0.329,3.031s0.103,2.107,0.306,3.054c0.205,0.946,0.537,1.767,1,2.463
		c0.461,0.697,1.066,1.242,1.816,1.635c0.749,0.395,1.661,0.59,2.736,0.59C435.186,356.163,435.916,356.073,436.561,355.892
		 M418.317,348.398v-5.562h2.237c0.513,0,0.946,0.038,1.3,0.112c0.354,0.075,0.644,0.211,0.871,0.407
		c0.226,0.196,0.387,0.456,0.485,0.78s0.147,0.727,0.147,1.21v0.339c0,0.995-0.207,1.696-0.623,2.103
		c-0.414,0.407-1.125,0.61-2.135,0.61H418.317z M422.062,349.735c0.711-0.091,1.306-0.269,1.783-0.533
		c0.477-0.265,0.858-0.59,1.146-0.976c0.287-0.386,0.49-0.81,0.613-1.271c0.121-0.463,0.181-0.936,0.181-1.42
		c0-1.422-0.416-2.522-1.248-3.302c-0.833-0.778-2.097-1.169-3.792-1.169h-4.723v14.781h2.294v-5.904h2.328l3.053,5.904h2.429
		l-2.702-5.043L422.062,349.735z M409.485,355.847h2.293v-14.781h-2.293V355.847z M404.66,355.892
		c0.643-0.182,1.23-0.401,1.76-0.658l-0.5-1.726c-0.318,0.121-0.609,0.234-0.874,0.341c-0.265,0.105-0.53,0.196-0.795,0.271
		c-0.265,0.076-0.541,0.137-0.828,0.183c-0.288,0.045-0.613,0.067-0.977,0.067c-0.53,0-1.007-0.095-1.43-0.283
		c-0.424-0.189-0.783-0.503-1.079-0.942c-0.295-0.438-0.522-1.021-0.681-1.749c-0.159-0.726-0.238-1.626-0.238-2.701v-0.727
		c0-1.044,0.087-1.907,0.261-2.588c0.174-0.682,0.412-1.223,0.715-1.624c0.303-0.401,0.662-0.678,1.079-0.828
		c0.416-0.152,0.859-0.228,1.328-0.228c0.318,0,0.613,0.016,0.885,0.045c0.273,0.03,0.545,0.072,0.818,0.125
		c0.272,0.054,0.552,0.121,0.84,0.204c0.287,0.084,0.605,0.179,0.953,0.284l0.273-1.794c-0.515-0.227-1.056-0.412-1.624-0.556
		c-0.567-0.145-1.237-0.216-2.009-0.216c-1.06,0-1.968,0.192-2.724,0.578c-0.758,0.387-1.371,0.921-1.84,1.602
		c-0.469,0.681-0.813,1.487-1.033,2.418c-0.219,0.931-0.329,1.941-0.329,3.031s0.102,2.107,0.307,3.054
		c0.204,0.946,0.537,1.767,0.999,2.463c0.461,0.697,1.067,1.242,1.816,1.635c0.749,0.395,1.661,0.59,2.736,0.59
		C403.286,356.163,404.016,356.073,404.66,355.892"/>
	<path clip-path="url(#SVGID_4_)" fill="none" stroke="#FFFFFF" stroke-width="0.181" stroke-miterlimit="3.493" d="
		M452.486,355.847h8.65v-1.794h-6.357v-4.927h5.109v-1.703h-5.109v-4.519h5.949v-1.839h-8.242V355.847z M441.248,355.847h8.219
		v-1.771h-5.926v-13.01h-2.293V355.847z M436.561,355.892c0.643-0.182,1.229-0.401,1.758-0.658l-0.498-1.726
		c-0.318,0.121-0.61,0.234-0.875,0.341c-0.264,0.105-0.529,0.196-0.795,0.271c-0.265,0.076-0.541,0.137-0.828,0.183
		c-0.288,0.045-0.613,0.067-0.977,0.067c-0.529,0-1.007-0.095-1.431-0.283c-0.424-0.189-0.783-0.503-1.078-0.942
		c-0.295-0.438-0.522-1.021-0.681-1.749c-0.159-0.726-0.239-1.626-0.239-2.701v-0.727c0-1.044,0.087-1.907,0.263-2.588
		c0.172-0.682,0.411-1.223,0.715-1.624c0.301-0.401,0.662-0.678,1.078-0.828c0.416-0.152,0.858-0.228,1.327-0.228
		c0.318,0,0.613,0.016,0.886,0.045c0.272,0.03,0.545,0.072,0.817,0.125c0.272,0.054,0.554,0.121,0.84,0.204
		c0.288,0.084,0.606,0.179,0.954,0.284l0.271-1.794c-0.514-0.227-1.055-0.412-1.623-0.556c-0.567-0.145-1.236-0.216-2.008-0.216
		c-1.061,0-1.969,0.192-2.726,0.578c-0.757,0.387-1.37,0.921-1.839,1.602s-0.814,1.487-1.033,2.418
		c-0.22,0.931-0.329,1.941-0.329,3.031s0.103,2.107,0.306,3.054c0.205,0.946,0.537,1.767,1,2.463
		c0.461,0.697,1.066,1.242,1.816,1.635c0.749,0.395,1.661,0.59,2.736,0.59C435.186,356.163,435.916,356.073,436.561,355.892z
		 M418.317,348.398v-5.562h2.237c0.513,0,0.946,0.038,1.3,0.112c0.354,0.075,0.644,0.211,0.871,0.407
		c0.226,0.196,0.387,0.456,0.485,0.78s0.147,0.727,0.147,1.21v0.339c0,0.995-0.207,1.696-0.623,2.103
		c-0.414,0.407-1.125,0.61-2.135,0.61H418.317z M422.062,349.735c0.711-0.091,1.306-0.269,1.783-0.533
		c0.477-0.265,0.858-0.59,1.146-0.976c0.287-0.386,0.49-0.81,0.613-1.271c0.121-0.463,0.181-0.936,0.181-1.42
		c0-1.422-0.416-2.522-1.248-3.302c-0.833-0.778-2.097-1.169-3.792-1.169h-4.723v14.781h2.294v-5.904h2.328l3.053,5.904h2.429
		l-2.702-5.043L422.062,349.735z M409.485,355.847h2.293v-14.781h-2.293V355.847z M404.66,355.892
		c0.643-0.182,1.23-0.401,1.76-0.658l-0.5-1.726c-0.318,0.121-0.609,0.234-0.874,0.341c-0.265,0.105-0.53,0.196-0.795,0.271
		c-0.265,0.076-0.541,0.137-0.828,0.183c-0.288,0.045-0.613,0.067-0.977,0.067c-0.53,0-1.007-0.095-1.43-0.283
		c-0.424-0.189-0.783-0.503-1.079-0.942c-0.295-0.438-0.522-1.021-0.681-1.749c-0.159-0.726-0.238-1.626-0.238-2.701v-0.727
		c0-1.044,0.087-1.907,0.261-2.588c0.174-0.682,0.412-1.223,0.715-1.624c0.303-0.401,0.662-0.678,1.079-0.828
		c0.416-0.152,0.859-0.228,1.328-0.228c0.318,0,0.613,0.016,0.885,0.045c0.273,0.03,0.545,0.072,0.818,0.125
		c0.272,0.054,0.552,0.121,0.84,0.204c0.287,0.084,0.605,0.179,0.953,0.284l0.273-1.794c-0.515-0.227-1.056-0.412-1.624-0.556
		c-0.567-0.145-1.237-0.216-2.009-0.216c-1.06,0-1.968,0.192-2.724,0.578c-0.758,0.387-1.371,0.921-1.84,1.602
		c-0.469,0.681-0.813,1.487-1.033,2.418c-0.219,0.931-0.329,1.941-0.329,3.031s0.102,2.107,0.307,3.054
		c0.204,0.946,0.537,1.767,0.999,2.463c0.461,0.697,1.067,1.242,1.816,1.635c0.749,0.395,1.661,0.59,2.736,0.59
		C403.286,356.163,404.016,356.073,404.66,355.892z"/>
	<path clip-path="url(#SVGID_4_)" fill="#FFFFFF" d="M386.653,343.188l-0.95-1.984h-1.565v14.644h2.571v-11.514
		c0.428-0.298,0.861-0.545,1.299-0.741c0.437-0.194,0.936-0.293,1.495-0.293c0.484,0,0.88,0.037,1.188,0.112
		c0.307,0.074,0.591,0.167,0.852,0.279l0.475-2.347c-0.168-0.094-0.405-0.187-0.713-0.28c-0.307-0.093-0.684-0.14-1.131-0.14
		c-0.373,0-0.727,0.042-1.062,0.125c-0.336,0.084-0.662,0.201-0.978,0.351L386.653,343.188z M377.99,353.136
		c-0.485,0.316-0.964,0.572-1.439,0.769c-0.475,0.195-1.058,0.293-1.747,0.293c-0.633,0-1.141-0.172-1.523-0.517
		c-0.382-0.345-0.573-0.974-0.573-1.887v-10.591h-2.57v10.284c0,1.62,0.353,2.804,1.061,3.549s1.658,1.117,2.851,1.117
		c0.577,0,1.094-0.056,1.551-0.167c0.456-0.112,0.852-0.242,1.187-0.392l1.258-1.537l0.922,1.789h1.593v-14.644h-2.571V353.136z
		 M359.128,347.491c0.037-0.932,0.135-1.7,0.293-2.306s0.368-1.08,0.629-1.425c0.261-0.346,0.582-0.588,0.964-0.728
		c0.382-0.139,0.806-0.209,1.271-0.209c0.932,0,1.621,0.317,2.068,0.95c0.447,0.633,0.671,1.723,0.671,3.269v0.448H359.128z
		 M359.128,349.335h8.383v-1.593c0-2.104-0.419-3.768-1.258-4.988c-0.838-1.22-2.17-1.83-3.996-1.83
		c-1.751,0-3.157,0.619-4.219,1.858s-1.593,3.162-1.593,5.771c0,2.553,0.512,4.472,1.537,5.757c1.024,1.285,2.543,1.928,4.555,1.928
		c0.931,0,1.793-0.127,2.585-0.382c0.791-0.255,1.401-0.505,1.83-0.751l-0.419-1.913c-0.634,0.261-1.258,0.485-1.872,0.671
		c-0.615,0.186-1.267,0.279-1.956,0.279c-0.615,0-1.146-0.083-1.593-0.249c-0.447-0.167-0.815-0.437-1.104-0.807
		c-0.289-0.371-0.503-0.861-0.643-1.473C359.226,351.002,359.146,350.243,359.128,349.335 M353.567,355.024
		c0.82-0.809,1.23-1.854,1.23-3.137c0-0.688-0.084-1.273-0.252-1.758c-0.168-0.482-0.415-0.896-0.74-1.239
		c-0.327-0.346-0.727-0.628-1.202-0.852c-0.475-0.223-1.03-0.418-1.663-0.586c-0.559-0.147-1.034-0.283-1.425-0.404
		c-0.391-0.12-0.708-0.26-0.95-0.418c-0.242-0.157-0.419-0.353-0.531-0.586c-0.112-0.231-0.168-0.544-0.168-0.934
		c0-0.837,0.214-1.395,0.643-1.673c0.428-0.279,1.08-0.419,1.956-0.419c0.708,0,1.318,0.061,1.831,0.182
		c0.512,0.121,1.038,0.275,1.578,0.461l0.392-1.889c-0.429-0.227-0.974-0.424-1.635-0.594c-0.662-0.171-1.439-0.256-2.333-0.256
		c-1.454,0-2.618,0.35-3.493,1.049c-0.876,0.697-1.314,1.783-1.314,3.255c0,0.671,0.088,1.244,0.266,1.719
		c0.176,0.475,0.423,0.876,0.74,1.201c0.317,0.326,0.689,0.587,1.118,0.783c0.428,0.194,0.903,0.367,1.425,0.517
		c0.671,0.167,1.22,0.321,1.649,0.461c0.428,0.139,0.763,0.293,1.006,0.461c0.242,0.167,0.409,0.377,0.503,0.629
		c0.093,0.251,0.14,0.582,0.14,0.992c0,0.857-0.238,1.453-0.713,1.788s-1.16,0.503-2.054,0.503c-0.727,0-1.402-0.093-2.026-0.279
		c-0.624-0.186-1.178-0.382-1.663-0.587l-0.307,1.9c0.428,0.205,0.992,0.41,1.691,0.615c0.698,0.205,1.551,0.307,2.557,0.307
		C351.5,356.237,352.748,355.833,353.567,355.024 M342.726,355.024c0.82-0.809,1.229-1.854,1.229-3.137
		c0-0.688-0.083-1.273-0.251-1.758c-0.168-0.482-0.415-0.896-0.741-1.239c-0.326-0.346-0.726-0.628-1.201-0.852
		c-0.475-0.223-1.03-0.418-1.663-0.586c-0.559-0.147-1.034-0.283-1.425-0.404c-0.391-0.12-0.708-0.26-0.95-0.418
		c-0.242-0.157-0.419-0.353-0.531-0.586c-0.112-0.231-0.168-0.544-0.168-0.934c0-0.837,0.214-1.395,0.643-1.673
		c0.428-0.279,1.08-0.419,1.956-0.419c0.708,0,1.318,0.061,1.83,0.182c0.513,0.121,1.039,0.275,1.579,0.461l0.392-1.889
		c-0.429-0.227-0.974-0.424-1.635-0.594c-0.662-0.171-1.439-0.256-2.334-0.256c-1.453,0-2.617,0.35-3.493,1.049
		c-0.875,0.697-1.313,1.783-1.313,3.255c0,0.671,0.088,1.244,0.266,1.719c0.176,0.475,0.423,0.876,0.74,1.201
		c0.317,0.326,0.689,0.587,1.118,0.783c0.428,0.194,0.903,0.367,1.425,0.517c0.671,0.167,1.22,0.321,1.649,0.461
		c0.428,0.139,0.763,0.293,1.006,0.461c0.242,0.167,0.409,0.377,0.503,0.629c0.093,0.251,0.139,0.582,0.139,0.992
		c0,0.857-0.237,1.453-0.712,1.788c-0.475,0.335-1.16,0.503-2.054,0.503c-0.727,0-1.402-0.093-2.026-0.279
		c-0.624-0.186-1.179-0.382-1.663-0.587l-0.307,1.9c0.428,0.205,0.992,0.41,1.69,0.615c0.699,0.205,1.551,0.307,2.557,0.307
		C340.657,356.237,341.905,355.833,342.726,355.024 M329.396,355.847h2.571v-14.644h-2.571V355.847z M331.87,338.27
		c0.325-0.298,0.489-0.689,0.489-1.174s-0.164-0.881-0.489-1.188c-0.326-0.308-0.713-0.461-1.16-0.461
		c-0.447,0-0.838,0.153-1.174,0.461c-0.335,0.307-0.503,0.703-0.503,1.188s0.168,0.876,0.503,1.174
		c0.336,0.298,0.727,0.446,1.174,0.446C331.156,338.716,331.543,338.567,331.87,338.27 M319.406,353.975
		c-0.401-0.187-0.736-0.494-1.006-0.923s-0.48-0.996-0.629-1.704s-0.223-1.583-0.223-2.627v-0.476c0-1.043,0.069-1.899,0.209-2.571
		c0.14-0.671,0.345-1.211,0.615-1.62s0.605-0.693,1.006-0.853c0.4-0.158,0.861-0.237,1.383-0.237c0.521,0,0.983,0.083,1.383,0.251
		c0.401,0.168,0.731,0.457,0.992,0.866c0.261,0.41,0.462,0.964,0.601,1.663c0.14,0.699,0.21,1.579,0.21,2.642v0.446
		c0,1.025-0.075,1.882-0.224,2.571c-0.149,0.688-0.359,1.243-0.629,1.662c-0.27,0.42-0.6,0.723-0.992,0.909
		c-0.391,0.186-0.838,0.278-1.341,0.278S319.807,354.16,319.406,353.975 M325.065,354.253c1.043-1.321,1.564-3.24,1.564-5.756
		c0-2.478-0.526-4.359-1.578-5.645c-1.053-1.286-2.483-1.929-4.29-1.929c-1.788,0-3.218,0.652-4.289,1.956
		c-1.072,1.305-1.607,3.204-1.607,5.7c0,2.479,0.526,4.374,1.579,5.688c1.052,1.312,2.491,1.97,4.317,1.97
		C322.587,356.237,324.021,355.576,325.065,354.253 M304.331,343.075l-0.95-1.872h-1.565v14.644h2.571v-11.737
		c0.54-0.335,1.043-0.602,1.509-0.796c0.465-0.196,1.024-0.294,1.676-0.294c0.652,0,1.174,0.159,1.565,0.475
		c0.392,0.317,0.587,0.896,0.587,1.733v10.619h2.571v-10.284c0-1.64-0.349-2.822-1.048-3.549c-0.698-0.727-1.663-1.09-2.892-1.09
		c-0.578,0-1.086,0.061-1.523,0.182c-0.438,0.122-0.815,0.257-1.132,0.405L304.331,343.075z M290.386,343.075l-0.95-1.872h-1.565
		v14.644h2.571v-11.737c0.54-0.335,1.043-0.602,1.509-0.796c0.465-0.196,1.024-0.294,1.676-0.294s1.174,0.159,1.565,0.475
		c0.391,0.317,0.587,0.896,0.587,1.733v10.619h2.571v-10.284c0-1.64-0.349-2.822-1.048-3.549c-0.699-0.727-1.663-1.09-2.892-1.09
		c-0.578,0-1.086,0.061-1.523,0.182c-0.438,0.122-0.815,0.257-1.132,0.405L290.386,343.075z M277.965,353.975
		c-0.401-0.187-0.736-0.494-1.006-0.923s-0.48-0.996-0.629-1.704s-0.223-1.583-0.223-2.627v-0.476c0-1.043,0.069-1.899,0.209-2.571
		c0.14-0.671,0.345-1.211,0.615-1.62c0.27-0.409,0.605-0.693,1.006-0.853c0.4-0.158,0.861-0.237,1.383-0.237
		c0.521,0,0.983,0.083,1.383,0.251c0.401,0.168,0.731,0.457,0.992,0.866c0.261,0.41,0.461,0.964,0.601,1.663s0.21,1.579,0.21,2.642
		v0.446c0,1.025-0.075,1.882-0.224,2.571c-0.149,0.688-0.359,1.243-0.629,1.662c-0.27,0.42-0.6,0.723-0.992,0.909
		c-0.391,0.186-0.838,0.278-1.341,0.278S278.365,354.16,277.965,353.975 M283.625,354.253c1.043-1.321,1.564-3.24,1.564-5.756
		c0-2.478-0.526-4.359-1.578-5.645c-1.053-1.286-2.483-1.929-4.29-1.929c-1.788,0-3.218,0.652-4.289,1.956
		c-1.072,1.305-1.607,3.204-1.607,5.7c0,2.479,0.526,4.374,1.579,5.688c1.052,1.312,2.491,1.97,4.317,1.97
		C281.146,356.237,282.581,355.576,283.625,354.253 M270.406,355.883c0.689-0.235,1.266-0.485,1.732-0.751l-0.419-1.94
		c-0.615,0.28-1.188,0.508-1.718,0.685c-0.531,0.178-1.132,0.266-1.803,0.266c-0.522,0-0.983-0.083-1.383-0.25
		c-0.401-0.168-0.741-0.46-1.02-0.878c-0.28-0.419-0.489-0.981-0.629-1.688s-0.209-1.598-0.209-2.676v-0.446
		c0-1.059,0.069-1.918,0.209-2.578s0.345-1.18,0.615-1.561s0.61-0.642,1.02-0.781c0.409-0.139,0.875-0.209,1.397-0.209
		c0.577,0,1.132,0.062,1.663,0.182c0.531,0.121,1.113,0.284,1.746,0.489L272,341.79c-0.485-0.224-1.062-0.424-1.733-0.601
		c-0.671-0.177-1.416-0.266-2.236-0.266c-1.9,0-3.335,0.624-4.303,1.872c-0.969,1.248-1.453,3.158-1.453,5.729
		c0,2.553,0.493,4.476,1.481,5.771c0.987,1.295,2.412,1.942,4.275,1.942C268.925,356.237,269.716,356.119,270.406,355.883
		 M248.793,359.259h1.875l4.592-14.451h-1.832l-1.96,6.445l-0.568,3.203l-0.527-3.203l-1.98-6.445h-2.002l3.561,10.701
		L248.793,359.259z M239.082,347.146c0.225-0.197,0.52-0.408,0.885-0.632c0.365-0.226,0.829-0.338,1.39-0.338
		c0.351,0,0.667,0.057,0.948,0.169c0.281,0.112,0.517,0.315,0.706,0.61c0.19,0.295,0.337,0.692,0.443,1.19
		c0.105,0.499,0.158,1.127,0.158,1.886v0.737c0,0.744-0.05,1.373-0.148,1.885c-0.098,0.513-0.249,0.927-0.453,1.243
		c-0.204,0.315-0.453,0.545-0.748,0.685c-0.295,0.141-0.639,0.211-1.032,0.211c-0.421,0-0.808-0.066-1.159-0.201
		c-0.351-0.133-0.681-0.312-0.99-0.536V347.146z M238.682,354.604l1.18,1.201c0.168,0.069,0.403,0.144,0.705,0.221
		c0.302,0.077,0.643,0.116,1.022,0.116c1.32,0,2.321-0.468,3.002-1.401s1.022-2.405,1.022-4.413c0-1.952-0.33-3.395-0.99-4.33
		c-0.661-0.933-1.609-1.4-2.844-1.4c-0.632,0-1.166,0.115-1.601,0.348c-0.436,0.232-0.801,0.495-1.096,0.79v-5.014h-1.938v15.188
		h0.948L238.682,354.604z"/>
	<path clip-path="url(#SVGID_4_)" fill="none" d="M386.653,343.188l-0.95-1.984h-1.565v14.644h2.571v-11.514
		c0.428-0.298,0.861-0.545,1.299-0.741c0.437-0.194,0.936-0.293,1.495-0.293c0.484,0,0.88,0.037,1.188,0.112
		c0.307,0.074,0.591,0.167,0.852,0.279l0.475-2.347c-0.168-0.094-0.405-0.187-0.713-0.28c-0.307-0.093-0.684-0.14-1.131-0.14
		c-0.373,0-0.727,0.042-1.062,0.125c-0.336,0.084-0.662,0.201-0.978,0.351L386.653,343.188z M377.99,353.136
		c-0.485,0.316-0.964,0.572-1.439,0.769c-0.475,0.195-1.058,0.293-1.747,0.293c-0.633,0-1.141-0.172-1.523-0.517
		c-0.382-0.345-0.573-0.974-0.573-1.887v-10.591h-2.57v10.284c0,1.62,0.353,2.804,1.061,3.549s1.658,1.117,2.851,1.117
		c0.577,0,1.094-0.056,1.551-0.167c0.456-0.112,0.852-0.242,1.187-0.392l1.258-1.537l0.922,1.789h1.593v-14.644h-2.571V353.136z
		 M359.128,347.491c0.037-0.932,0.135-1.7,0.293-2.306s0.368-1.08,0.629-1.425c0.261-0.346,0.582-0.588,0.964-0.728
		c0.382-0.139,0.806-0.209,1.271-0.209c0.932,0,1.621,0.317,2.068,0.95c0.447,0.633,0.671,1.723,0.671,3.269v0.448H359.128z
		 M359.128,349.335h8.383v-1.593c0-2.104-0.419-3.768-1.258-4.988c-0.838-1.22-2.17-1.83-3.996-1.83
		c-1.751,0-3.157,0.619-4.219,1.858s-1.593,3.162-1.593,5.771c0,2.553,0.512,4.472,1.537,5.757c1.024,1.285,2.543,1.928,4.555,1.928
		c0.931,0,1.793-0.127,2.585-0.382c0.791-0.255,1.401-0.505,1.83-0.751l-0.419-1.913c-0.634,0.261-1.258,0.485-1.872,0.671
		c-0.615,0.186-1.267,0.279-1.956,0.279c-0.615,0-1.146-0.083-1.593-0.249c-0.447-0.167-0.815-0.437-1.104-0.807
		c-0.289-0.371-0.503-0.861-0.643-1.473C359.226,351.002,359.146,350.243,359.128,349.335z M353.567,355.024
		c0.82-0.809,1.23-1.854,1.23-3.137c0-0.688-0.084-1.273-0.252-1.758c-0.168-0.482-0.415-0.896-0.74-1.239
		c-0.327-0.346-0.727-0.628-1.202-0.852c-0.475-0.223-1.03-0.418-1.663-0.586c-0.559-0.147-1.034-0.283-1.425-0.404
		c-0.391-0.12-0.708-0.26-0.95-0.418c-0.242-0.157-0.419-0.353-0.531-0.586c-0.112-0.231-0.168-0.544-0.168-0.934
		c0-0.837,0.214-1.395,0.643-1.673c0.428-0.279,1.08-0.419,1.956-0.419c0.708,0,1.318,0.061,1.831,0.182
		c0.512,0.121,1.038,0.275,1.578,0.461l0.392-1.889c-0.429-0.227-0.974-0.424-1.635-0.594c-0.662-0.171-1.439-0.256-2.333-0.256
		c-1.454,0-2.618,0.35-3.493,1.049c-0.876,0.697-1.314,1.783-1.314,3.255c0,0.671,0.088,1.244,0.266,1.719
		c0.176,0.475,0.423,0.876,0.74,1.201c0.317,0.326,0.689,0.587,1.118,0.783c0.428,0.194,0.903,0.367,1.425,0.517
		c0.671,0.167,1.22,0.321,1.649,0.461c0.428,0.139,0.763,0.293,1.006,0.461c0.242,0.167,0.409,0.377,0.503,0.629
		c0.093,0.251,0.14,0.582,0.14,0.992c0,0.857-0.238,1.453-0.713,1.788s-1.16,0.503-2.054,0.503c-0.727,0-1.402-0.093-2.026-0.279
		c-0.624-0.186-1.178-0.382-1.663-0.587l-0.307,1.9c0.428,0.205,0.992,0.41,1.691,0.615c0.698,0.205,1.551,0.307,2.557,0.307
		C351.5,356.237,352.748,355.833,353.567,355.024z M342.726,355.024c0.82-0.809,1.229-1.854,1.229-3.137
		c0-0.688-0.083-1.273-0.251-1.758c-0.168-0.482-0.415-0.896-0.741-1.239c-0.326-0.346-0.726-0.628-1.201-0.852
		c-0.475-0.223-1.03-0.418-1.663-0.586c-0.559-0.147-1.034-0.283-1.425-0.404c-0.391-0.12-0.708-0.26-0.95-0.418
		c-0.242-0.157-0.419-0.353-0.531-0.586c-0.112-0.231-0.168-0.544-0.168-0.934c0-0.837,0.214-1.395,0.643-1.673
		c0.428-0.279,1.08-0.419,1.956-0.419c0.708,0,1.318,0.061,1.83,0.182c0.513,0.121,1.039,0.275,1.579,0.461l0.392-1.889
		c-0.429-0.227-0.974-0.424-1.635-0.594c-0.662-0.171-1.439-0.256-2.334-0.256c-1.453,0-2.617,0.35-3.493,1.049
		c-0.875,0.697-1.313,1.783-1.313,3.255c0,0.671,0.088,1.244,0.266,1.719c0.176,0.475,0.423,0.876,0.74,1.201
		c0.317,0.326,0.689,0.587,1.118,0.783c0.428,0.194,0.903,0.367,1.425,0.517c0.671,0.167,1.22,0.321,1.649,0.461
		c0.428,0.139,0.763,0.293,1.006,0.461c0.242,0.167,0.409,0.377,0.503,0.629c0.093,0.251,0.139,0.582,0.139,0.992
		c0,0.857-0.237,1.453-0.712,1.788c-0.475,0.335-1.16,0.503-2.054,0.503c-0.727,0-1.402-0.093-2.026-0.279
		c-0.624-0.186-1.179-0.382-1.663-0.587l-0.307,1.9c0.428,0.205,0.992,0.41,1.69,0.615c0.699,0.205,1.551,0.307,2.557,0.307
		C340.657,356.237,341.905,355.833,342.726,355.024z M329.396,355.847h2.571v-14.644h-2.571V355.847z M331.87,338.27
		c0.325-0.298,0.489-0.689,0.489-1.174s-0.164-0.881-0.489-1.188c-0.326-0.308-0.713-0.461-1.16-0.461
		c-0.447,0-0.838,0.153-1.174,0.461c-0.335,0.307-0.503,0.703-0.503,1.188s0.168,0.876,0.503,1.174
		c0.336,0.298,0.727,0.446,1.174,0.446C331.156,338.716,331.543,338.567,331.87,338.27z M319.406,353.975
		c-0.401-0.187-0.736-0.494-1.006-0.923s-0.48-0.996-0.629-1.704s-0.223-1.583-0.223-2.627v-0.476c0-1.043,0.069-1.899,0.209-2.571
		c0.14-0.671,0.345-1.211,0.615-1.62s0.605-0.693,1.006-0.853c0.4-0.158,0.861-0.237,1.383-0.237c0.521,0,0.983,0.083,1.383,0.251
		c0.401,0.168,0.731,0.457,0.992,0.866c0.261,0.41,0.462,0.964,0.601,1.663c0.14,0.699,0.21,1.579,0.21,2.642v0.446
		c0,1.025-0.075,1.882-0.224,2.571c-0.149,0.688-0.359,1.243-0.629,1.662c-0.27,0.42-0.6,0.723-0.992,0.909
		c-0.391,0.186-0.838,0.278-1.341,0.278S319.807,354.16,319.406,353.975z M325.065,354.253c1.043-1.321,1.564-3.24,1.564-5.756
		c0-2.478-0.526-4.359-1.578-5.645c-1.053-1.286-2.483-1.929-4.29-1.929c-1.788,0-3.218,0.652-4.289,1.956
		c-1.072,1.305-1.607,3.204-1.607,5.7c0,2.479,0.526,4.374,1.579,5.688c1.052,1.312,2.491,1.97,4.317,1.97
		C322.587,356.237,324.021,355.576,325.065,354.253z M304.331,343.075l-0.95-1.872h-1.565v14.644h2.571v-11.737
		c0.54-0.335,1.043-0.602,1.509-0.796c0.465-0.196,1.024-0.294,1.676-0.294c0.652,0,1.174,0.159,1.565,0.475
		c0.392,0.317,0.587,0.896,0.587,1.733v10.619h2.571v-10.284c0-1.64-0.349-2.822-1.048-3.549c-0.698-0.727-1.663-1.09-2.892-1.09
		c-0.578,0-1.086,0.061-1.523,0.182c-0.438,0.122-0.815,0.257-1.132,0.405L304.331,343.075z M290.386,343.075l-0.95-1.872h-1.565
		v14.644h2.571v-11.737c0.54-0.335,1.043-0.602,1.509-0.796c0.465-0.196,1.024-0.294,1.676-0.294s1.174,0.159,1.565,0.475
		c0.391,0.317,0.587,0.896,0.587,1.733v10.619h2.571v-10.284c0-1.64-0.349-2.822-1.048-3.549c-0.699-0.727-1.663-1.09-2.892-1.09
		c-0.578,0-1.086,0.061-1.523,0.182c-0.438,0.122-0.815,0.257-1.132,0.405L290.386,343.075z M277.965,353.975
		c-0.401-0.187-0.736-0.494-1.006-0.923s-0.48-0.996-0.629-1.704s-0.223-1.583-0.223-2.627v-0.476c0-1.043,0.069-1.899,0.209-2.571
		c0.14-0.671,0.345-1.211,0.615-1.62c0.27-0.409,0.605-0.693,1.006-0.853c0.4-0.158,0.861-0.237,1.383-0.237
		c0.521,0,0.983,0.083,1.383,0.251c0.401,0.168,0.731,0.457,0.992,0.866c0.261,0.41,0.461,0.964,0.601,1.663s0.21,1.579,0.21,2.642
		v0.446c0,1.025-0.075,1.882-0.224,2.571c-0.149,0.688-0.359,1.243-0.629,1.662c-0.27,0.42-0.6,0.723-0.992,0.909
		c-0.391,0.186-0.838,0.278-1.341,0.278S278.365,354.16,277.965,353.975z M283.625,354.253c1.043-1.321,1.564-3.24,1.564-5.756
		c0-2.478-0.526-4.359-1.578-5.645c-1.053-1.286-2.483-1.929-4.29-1.929c-1.788,0-3.218,0.652-4.289,1.956
		c-1.072,1.305-1.607,3.204-1.607,5.7c0,2.479,0.526,4.374,1.579,5.688c1.052,1.312,2.491,1.97,4.317,1.97
		C281.146,356.237,282.581,355.576,283.625,354.253z M270.406,355.883c0.689-0.235,1.266-0.485,1.732-0.751l-0.419-1.94
		c-0.615,0.28-1.188,0.508-1.718,0.685c-0.531,0.178-1.132,0.266-1.803,0.266c-0.522,0-0.983-0.083-1.383-0.25
		c-0.401-0.168-0.741-0.46-1.02-0.878c-0.28-0.419-0.489-0.981-0.629-1.688s-0.209-1.598-0.209-2.676v-0.446
		c0-1.059,0.069-1.918,0.209-2.578s0.345-1.18,0.615-1.561s0.61-0.642,1.02-0.781c0.409-0.139,0.875-0.209,1.397-0.209
		c0.577,0,1.132,0.062,1.663,0.182c0.531,0.121,1.113,0.284,1.746,0.489L272,341.79c-0.485-0.224-1.062-0.424-1.733-0.601
		c-0.671-0.177-1.416-0.266-2.236-0.266c-1.9,0-3.335,0.624-4.303,1.872c-0.969,1.248-1.453,3.158-1.453,5.729
		c0,2.553,0.493,4.476,1.481,5.771c0.987,1.295,2.412,1.942,4.275,1.942C268.925,356.237,269.716,356.119,270.406,355.883z
		 M248.793,359.259h1.875l4.592-14.451h-1.832l-1.96,6.445l-0.568,3.203l-0.527-3.203l-1.98-6.445h-2.002l3.561,10.701
		L248.793,359.259z M239.082,347.146c0.225-0.197,0.52-0.408,0.885-0.632c0.365-0.226,0.829-0.338,1.39-0.338
		c0.351,0,0.667,0.057,0.948,0.169c0.281,0.112,0.517,0.315,0.706,0.61c0.19,0.295,0.337,0.692,0.443,1.19
		c0.105,0.499,0.158,1.127,0.158,1.886v0.737c0,0.744-0.05,1.373-0.148,1.885c-0.098,0.513-0.249,0.927-0.453,1.243
		c-0.204,0.315-0.453,0.545-0.748,0.685c-0.295,0.141-0.639,0.211-1.032,0.211c-0.421,0-0.808-0.066-1.159-0.201
		c-0.351-0.133-0.681-0.312-0.99-0.536V347.146z M238.682,354.604l1.18,1.201c0.168,0.069,0.403,0.144,0.705,0.221
		c0.302,0.077,0.643,0.116,1.022,0.116c1.32,0,2.321-0.468,3.002-1.401s1.022-2.405,1.022-4.413c0-1.952-0.33-3.395-0.99-4.33
		c-0.661-0.933-1.609-1.4-2.844-1.4c-0.632,0-1.166,0.115-1.601,0.348c-0.436,0.232-0.801,0.495-1.096,0.79v-5.014h-1.938v15.188
		h0.948L238.682,354.604z"/>
	<g clip-path="url(#SVGID_4_)">
		<defs>
			<rect id="SVGID_5_" x="228.598" y="265.492" width="451.228" height="58.675"/>
		</defs>
		<clipPath id="SVGID_6_">
			<use xlink:href="#SVGID_5_"  overflow="visible"/>
		</clipPath>
		<path clip-path="url(#SVGID_6_)" fill="#9D9D9C" d="M249.287,296.078h-15.659v-25.232h15.659c8.438,0,12.332,3.895,12.332,12.332
			C261.619,290.723,258.455,296.078,249.287,296.078 M267.542,322.771l-11.602-23.204c7.544-2.028,10.872-7.95,10.872-16.47
			c0-11.683-5.923-16.713-17.525-16.713h-20.688v56.387h5.029v-22.23h17.201l11.114,22.23H267.542z M279.519,292.688
			c0.101-15.038,5.95-22.35,17.874-22.35c11.653,0,16.464,6.483,16.544,22.35H279.519z M279.518,297.032h39.318v-4.057
			c0-18.406-6.814-26.979-21.443-26.979c-15.111,0-22.773,9.786-22.773,29.086c0,15.031,2.57,28.959,21.219,29.085h0.002
			c8.009,0,20.398-0.989,20.523-0.999l0.391-0.031l-0.272-4.343l-0.406,0.033c-0.123,0.01-12.476,0.995-20.125,0.995
			C284.374,319.822,279.595,313.213,279.518,297.032 M331.632,279.933c0-6.977,4.625-9.979,13.063-9.979
			c4.705,0,15.901,1.379,15.901,1.379l0.406-4.3c0,0-10.06-1.541-16.632-1.541c-10.871,0-17.849,4.056-17.849,14.765
			c0,11.197,6.085,13.63,17.525,15.821c9.411,1.704,13.062,3.489,13.062,10.547c0,8.681-4.3,12.332-12.738,12.332
			c-5.76,0-16.875-1.379-16.875-1.379l-0.568,4.3c0,0,11.196,1.541,17.605,1.541c11.115,0,17.687-4.624,17.687-17.118
			c0-9.979-5.274-12.657-16.307-14.847C335.933,289.506,331.632,288.289,331.632,279.933 M374.144,322.769h5.03v-56.386h-5.03
			V322.769z M426.229,293.807c0,12.25-3,24.501-14.847,24.501h-15.496v-47.38h15.496
			C423.229,270.928,426.229,281.718,426.229,293.807 M431.422,293.807c0-15.253-4.543-27.423-20.041-27.423h-20.526v56.385h20.526
			C427.041,322.769,431.422,309.222,431.422,293.807 M444.293,292.688c0.102-15.038,5.949-22.35,17.873-22.35
			c11.652,0,16.465,6.483,16.543,22.35H444.293z M444.293,297.032h39.314v-4.057c0-18.406-6.812-26.979-21.441-26.979
			c-15.111,0-22.773,9.786-22.773,29.086c0,15.031,2.57,28.959,21.219,29.085h0.004c8.008,0,20.396-0.989,20.521-0.999l0.391-0.031
			l-0.271-4.343l-0.406,0.033c-0.123,0.01-12.477,0.995-20.125,0.995C449.146,319.822,444.369,313.213,444.293,297.032
			 M532.648,323.17h4.678v-29.196c0-20.992-2.684-27.978-18.564-27.978c-8.186,0-16.697,4.01-18.984,5.167v-4.17h-4.676v56.177
			h4.676v-47.458c1.414-0.78,10.125-5.373,18.984-5.373c12.064,0,13.887,5.374,13.887,23.856V323.17z M554.049,293.862
			c0-17.587,4.594-23.523,18.207-23.523c4.133,0,12.93,1.095,13.018,1.106l0.424,0.053l0.27-4.346l-0.373-0.045
			c-0.092-0.012-9.156-1.111-13.338-1.111c-17.059,0-23.107,7.292-23.107,27.866c0,23.507,5.184,30.305,23.107,30.305
			c4.18,0,13.461-0.99,13.555-1l0.379-0.041l-0.271-4.344l-0.418,0.046c-0.09,0.01-9.107,0.994-13.244,0.994
			C559.416,319.822,554.049,316.215,554.049,293.862 M595.125,292.688c0.102-15.038,5.949-22.35,17.873-22.35
			c11.652,0,16.465,6.483,16.543,22.35H595.125z M595.125,297.032h39.314v-4.057c0-18.406-6.812-26.979-21.441-26.979
			c-15.111,0-22.773,9.786-22.773,29.086c0,15.031,2.57,28.959,21.219,29.085h0.004c8.008,0,20.398-0.989,20.521-0.999l0.391-0.031
			l-0.27-4.343l-0.406,0.033c-0.125,0.01-12.477,0.995-20.125,0.995C599.979,319.822,595.201,313.213,595.125,297.032
			 M678.203,271.333l0.406-4.3c0,0-10.061-1.541-16.633-1.541c-10.869,0-17.85,4.056-17.85,14.765
			c0,11.197,6.086,13.63,17.525,15.821c9.412,1.704,13.062,3.489,13.062,10.547c0,8.681-4.301,12.332-12.738,12.332
			c-5.76,0-16.875-1.379-16.875-1.379l-0.568,4.3c0,0,11.197,1.541,17.605,1.541c11.115,0,17.688-4.624,17.688-17.118
			c0-9.979-5.275-12.657-16.309-14.847c-9.979-1.948-14.279-3.165-14.279-11.521c0-6.977,4.625-9.979,13.062-9.979
			C667.006,269.954,678.203,271.333,678.203,271.333"/>
	</g>
</g>
<g>
	<defs>
		<rect id="SVGID_7_" x="228.598" y="235.492" width="147.749" height="21.073"/>
	</defs>
	<clipPath id="SVGID_8_">
		<use xlink:href="#SVGID_7_"  overflow="visible"/>
	</clipPath>
	<path clip-path="url(#SVGID_8_)" fill="#9D9D9C" d="M240.41,242.139c0,3.288-1.28,5.179-4.422,5.179h-5.586v-9.98h5.586
		C239.129,237.337,240.41,238.879,240.41,242.139 M242.272,242.139c0-4.307-1.95-6.4-6.285-6.4h-7.39v20.22h1.804v-7.041h5.586
		C240.323,248.917,242.272,246.474,242.272,242.139 M254.143,246.387h-5.616v-9.05h5.616c3.026,0,4.422,1.397,4.422,4.424
		C258.564,244.465,257.431,246.387,254.143,246.387 M260.688,255.958l-4.16-8.32c2.705-0.729,3.898-2.853,3.898-5.907
		c0-4.189-2.124-5.992-6.284-5.992h-7.419v20.22h1.803v-7.972h6.169l3.987,7.972H260.688z M266.837,245.063
		c0.063-5.249,2.126-7.801,6.302-7.801c4.078,0,5.776,2.265,5.826,7.801H266.837z M266.837,246.835h14.099v-1.561
		c0-6.675-2.478-9.782-7.797-9.782c-5.49,0-8.273,3.545-8.273,10.536c0,5.445,0.934,10.491,7.715,10.536h0.002
		c2.876,0,7.324-0.353,7.368-0.356l0.245-0.021l-0.11-1.77l-0.254,0.02c-0.045,0.005-4.471,0.357-7.209,0.357
		C268.573,254.795,266.886,252.484,266.837,246.835 M312.093,256.209h1.89v-10.577c0-7.482-1.022-10.14-6.764-10.14
		c-3.416,0-6.421,1.59-7.231,2.058c-1.029-1.477-2.572-2.058-5.4-2.058c-2.784,0-5.322,1.241-6.263,1.761v-1.404h-1.891v20.36h1.891
		v-17.072c0.566-0.349,3.219-1.874,6.263-1.874c4.054,0,4.874,1.421,4.874,8.448v10.498h1.89v-10.577
		c0-3.239-0.193-5.171-0.662-6.564c0.671-0.395,3.299-1.805,6.529-1.805c4.054,0,4.874,1.421,4.874,8.448V256.209z M320.142,255.959
		h1.804v-20.222h-1.804V255.959z M340.34,256.209h1.89v-20.36h-1.89v17.072c-0.568,0.349-3.225,1.874-6.264,1.874
		c-4.053,0-4.873-1.421-4.873-8.448v-10.498h-1.891v10.577c0,7.483,1.022,10.139,6.764,10.139c2.784,0,5.322-1.239,6.264-1.76
		V256.209z M376.348,256.209v-10.577c0-7.482-1.022-10.14-6.764-10.14c-3.415,0-6.421,1.59-7.232,2.058
		c-1.027-1.477-2.57-2.058-5.398-2.058c-2.785,0-5.323,1.241-6.264,1.761v-1.404h-1.89v20.36h1.89v-17.072
		c0.567-0.349,3.224-1.874,6.264-1.874c3.776,0,4.874,1.109,4.874,8.448v10.498h1.89v-10.577c0-3.24-0.193-5.172-0.662-6.563
		c0.672-0.396,3.305-1.806,6.528-1.806c3.776,0,4.874,1.109,4.874,8.448v10.498H376.348z"/>
</g>
</svg>
